<?xml version="1.0" encoding="utf-8"?>
<!-- Generator: Adobe Illustrator 22.0.1, SVG Export Plug-In . SVG Version: 6.00 Build 0)  -->
<svg version="1.1" id="Capa_1" xmlns="http://www.w3.org/2000/svg" xmlns:xlink="http://www.w3.org/1999/xlink" x="0px" y="0px"
	 viewBox="0 0 283.5 283.5" style="enable-background:new 0 0 283.5 283.5;" xml:space="preserve">
<style type="text/css">
	.st0{fill:#FFFFFF;}
</style>
<path class="st0" d="M141.7,0c39.2,0,74.6,15.9,100.2,41.5c25.7,25.7,41.5,61.1,41.5,100.2c0,39.2-15.9,74.6-41.5,100.2
	c-25.7,25.7-61.1,41.5-100.2,41.5s-74.6-15.9-100.2-41.5S0,180.9,0,141.7S15.9,67.1,41.5,41.5C67.2,15.9,102.6,0,141.7,0L141.7,0z
	 M234.1,49.4c-23.6-23.7-56.3-38.3-92.4-38.3S73,25.7,49.4,49.4C25.7,73,11.1,105.6,11.1,141.7s14.6,68.7,38.3,92.4
	c23.6,23.7,56.3,38.3,92.4,38.3s68.7-14.6,92.4-38.3c23.7-23.6,38.3-56.3,38.3-92.4C272.4,105.6,257.8,73,234.1,49.4L234.1,49.4z"/>
<path class="st0" d="M85.9,146.4H109c5.2,0,14,2.3,14,12.1c0,5.2-4.1,11.2-9.2,11.2h-28L85.9,146.4L85.9,146.4z M160.5,99.8h41.7
	v13.9h-41.7V99.8z M196.6,146.4H166c0.9-8.2,7.2-13.8,15.4-13.8C189.5,132.5,195.5,138.2,196.6,146.4L196.6,146.4z M165,155.6h51.2
	c0-0.7,0-1.6,0-2.3c0-19.2-13.9-34.9-34.8-34.9c-21.1,0-34.9,15.7-34.9,34.9c0,19.4,13.8,34.9,34.9,34.9c21,0,31-12,34.1-28h-18.9
	c-1.6,8.2-6.5,14.1-15.2,14.1C172.5,174.3,165.8,166.1,165,155.6L165,155.6z M141.9,160.2c0-10-6.8-18.8-15.9-21.9
	c6.6-4.2,11.1-11.5,11.1-19.9c0-12.8-10.4-23.2-23.2-23.2H67.2v93.1h46.7C129.1,188.3,141.9,175.8,141.9,160.2L141.9,160.2z
	 M109,132.5H85.9v-18.8H109c5.2,0,9.4,4.2,9.4,9.5C118.5,128.3,114.2,132.5,109,132.5L109,132.5z"/>
</svg>
