<?xml version="1.0" encoding="UTF-8"?>
<svg width="439px" height="287px" viewBox="0 0 439 287" version="1.1" xmlns="http://www.w3.org/2000/svg" xmlns:xlink="http://www.w3.org/1999/xlink">
    <!-- Generator: Sketch 51.3 (57544) - http://www.bohemiancoding.com/sketch -->
    <title>design-services</title>
    <desc>Created with Sketch.</desc>
    <defs></defs>
    <g id="v2" stroke="none" stroke-width="1" fill="none" fill-rule="evenodd">
        <g id="Desktop-HD" transform="translate(-168.000000, -1777.000000)">
            <g id="Te-ayudamos" transform="translate(0.000000, 1543.000000)">
                <g id="design-services" transform="translate(170.000000, 236.000000)">
                    <g id="packaging" transform="translate(272.000000, 109.000000)">
                        <g id="Group" transform="translate(0.000000, 64.000000)">
                            <polyline id="Shape" stroke="#000000" stroke-width="3" points="129.052703 27.0437838 129.406757 27.1616216 129.878829 27.3972973 129.878829 28.0454054 129.878829 28.34"></polyline>
                            <path d="M129.878829,49.0794595 L129.878829,48.3135135" id="Shape" stroke="#000000" stroke-width="3"></path>
                            <path d="M129.878829,74.827027 L129.878829,67.8745946" id="Shape" stroke="#000000" stroke-width="3"></path>
                            <path d="M113.297297,34.2908108 L113.297297,20.4448649" id="Shape" stroke="#000000" stroke-width="3"></path>
                            <polyline id="Shape" stroke="#000000" stroke-width="3" points="105.39009 37.5902703 105.39009 21.092973 105.39009 17.1454054 96.7157658 13.4924324 95.0045045 12.8443243 95.0045045 12.8443243 65.0279279 0.294594595 0.177027027 27.3972973 0.177027027 81.4848649 18.8828829 89.3210811 29.5635135 93.7989189 31.3927928 94.5648649 45.2599099 100.338919 65.0279279 108.587568 105.39009 91.7367568"></polyline>
                            <path d="M129.878829,33.7016216 L129.878829,33.5837838" id="Shape" stroke="#000000" stroke-width="3"></path>
                            <path d="M65.0279279,54.4410811 L65.0279279,108.587568" id="Shape" stroke="#000000" stroke-width="3"></path>
                            <path d="M129.878829,27.3972973 L129.524775,27.5151351 L128.462613,27.9864865 C128.462613,27.9864865 128.462613,27.9864865 128.462613,27.9864865 L126.515315,28.8113514" id="Shape" stroke="#000000" stroke-width="3"></path>
                            <polyline id="Shape" stroke="#000000" stroke-width="3" points="105.39009 37.5902703 65.0279279 54.4410811 45.2599099 46.1924324 18.9418919 35.2335135 18.9418919 35.2335135 0.177027027 27.3972973"></polyline>
                            <g transform="translate(18.882883, 7.659459)" id="Shape" stroke="#000000" stroke-width="3">
                                <path d="M64.7918919,0.53027027 L0,27.5740541"></path>
                                <polyline points="26.377027 38.532973 26.377027 38.532973 86.5072072 13.4335135"></polyline>
                                <path d="M26.377027,38.532973 L26.377027,92.7383784"></path>
                                <path d="M0,27.5740541 L0,81.7794595"></path>
                            </g>
                            <ellipse id="Oval" stroke="#000000" stroke-width="2.99993022" transform="translate(63.079250, 27.867718) rotate(-80.688391) translate(-63.079250, -27.867718) " cx="63.0792498" cy="27.8677177" rx="6.9629011" ry="11.606757"></ellipse>
                            <ellipse id="Oval" fill="#000000" fill-rule="nonzero" transform="translate(83.153289, 13.380816) rotate(-80.688391) translate(-83.153289, -13.380816) " cx="83.1532886" cy="13.3808164" rx="1.12114509" ry="1.88536155"></ellipse>
                            <ellipse id="Oval" fill="#000000" fill-rule="nonzero" transform="translate(95.070618, 13.981624) rotate(-80.688391) translate(-95.070618, -13.981624) " cx="95.0706182" cy="13.9816244" rx="1.12114509" ry="1.88536155"></ellipse>
                            <ellipse id="Oval" fill="#000000" fill-rule="nonzero" transform="translate(93.826755, 21.704858) rotate(-80.688391) translate(-93.826755, -21.704858) " cx="93.8267555" cy="21.7048577" rx="1.12114509" ry="1.88536155"></ellipse>
                            <ellipse id="Oval" fill="#000000" fill-rule="nonzero" transform="translate(71.966349, 18.474404) rotate(-80.688391) translate(-71.966349, -18.474404) " cx="71.9663488" cy="18.4744041" rx="1.12114509" ry="1.88536155"></ellipse>
                            <ellipse id="Oval" fill="#000000" fill-rule="nonzero" transform="translate(82.055225, 22.877603) rotate(-80.688391) translate(-82.055225, -22.877603) " cx="82.0552253" cy="22.8776035" rx="1.12114509" ry="1.88536155"></ellipse>
                            <ellipse id="Oval" fill="#000000" fill-rule="nonzero" transform="translate(75.898048, 27.884533) rotate(-80.688391) translate(-75.898048, -27.884533) " cx="75.8980483" cy="27.8845332" rx="1.12114509" ry="1.88536155"></ellipse>
                            <ellipse id="Oval" fill="#000000" fill-rule="nonzero" transform="translate(50.320322, 27.398735) rotate(-80.688391) translate(-50.320322, -27.398735) " cx="50.3203219" cy="27.3987349" rx="1.12114509" ry="1.88536155"></ellipse>
                            <ellipse id="Oval" fill="#000000" fill-rule="nonzero" transform="translate(43.992467, 41.416441) rotate(-80.688391) translate(-43.992467, -41.416441) " cx="43.9924672" cy="41.4164413" rx="1.12114509" ry="1.88536155"></ellipse>
                            <ellipse id="Oval" fill="#000000" fill-rule="nonzero" transform="translate(42.882850, 34.121560) rotate(-80.688391) translate(-42.882850, -34.121560) " cx="42.88285" cy="34.1215603" rx="1.12114509" ry="1.88536155"></ellipse>
                            <ellipse id="Oval" fill="#000000" fill-rule="nonzero" transform="translate(33.751831, 29.709830) rotate(-80.688391) translate(-33.751831, -29.709830) " cx="33.7518314" cy="29.7098295" rx="1.12114509" ry="1.88536155"></ellipse>
                            <ellipse id="Oval" fill="#000000" fill-rule="nonzero" transform="translate(53.148399, 37.701698) rotate(-80.688391) translate(-53.148399, -37.701698) " cx="53.1483995" cy="37.7016977" rx="1.12114509" ry="1.88536155"></ellipse>
                            <ellipse id="Oval" fill="#000000" fill-rule="nonzero" transform="translate(32.113470, 36.520126) rotate(-80.688391) translate(-32.113470, -36.520126) " cx="32.1134698" cy="36.5201259" rx="1.12114509" ry="1.88536155"></ellipse>
                            <ellipse id="Oval" fill="#000000" fill-rule="nonzero" cx="27.9702703" cy="50.9648649" rx="1.12117117" ry="1.88540541"></ellipse>
                            <ellipse id="Oval" fill="#000000" fill-rule="nonzero" cx="21.8333333" cy="42.7751351" rx="1.12117117" ry="1.88540541"></ellipse>
                            <ellipse id="Oval" fill="#000000" fill-rule="nonzero" cx="29.5045045" cy="71.1151351" rx="1.12117117" ry="1.88540541"></ellipse>
                            <ellipse id="Oval" fill="#000000" fill-rule="nonzero" cx="34.8743243" cy="59.2724324" rx="1.12117117" ry="1.88540541"></ellipse>
                            <ellipse id="Oval" fill="#000000" fill-rule="nonzero" cx="41.6603604" cy="68.1691892" rx="1.12117117" ry="1.88540541"></ellipse>
                            <ellipse id="Oval" fill="#000000" fill-rule="nonzero" cx="24.2527027" cy="61.6291892" rx="1.12117117" ry="1.88540541"></ellipse>
                            <ellipse id="Oval" fill="#000000" fill-rule="nonzero" cx="41.0112613" cy="52.5556757" rx="1.12117117" ry="1.88540541"></ellipse>
                            <ellipse id="Oval" fill="#000000" fill-rule="nonzero" cx="20.0040541" cy="73.0005405" rx="1.12117117" ry="1.88540541"></ellipse>
                            <ellipse id="Oval" fill="#000000" fill-rule="nonzero" cx="25.3738739" cy="83.4291892" rx="1.12117117" ry="1.88540541"></ellipse>
                            <ellipse id="Oval" fill="#000000" fill-rule="nonzero" cx="30.6846847" cy="93.1508108" rx="1.12117117" ry="1.88540541"></ellipse>
                            <ellipse id="Oval" fill="#000000" fill-rule="nonzero" cx="39.8310811" cy="92.5027027" rx="1.12117117" ry="1.88540541"></ellipse>
                            <ellipse id="Oval" fill="#000000" fill-rule="nonzero" cx="35.6414414" cy="80.3064865" rx="1.12117117" ry="1.88540541"></ellipse>
                        </g>
                        <g id="Group" transform="translate(105.000000, 0.000000)" stroke="#000000" stroke-width="3">
                            <path d="M57.644898,73.6108475 L57.644898,169.104407 C57.644898,171.758644 44.8020408,173.941017 29,173.941017 C13.1979592,173.941017 0.355102041,171.758644 0.355102041,169.104407 L0.355102041,156.187119 L0.355102041,101.981695 L0.355102041,85.4664407 L0.355102041,81.5145763 L0.355102041,73.6108475" id="Shape"></path>
                            <path d="M49.655102,79.1552542 C44.4469388,80.0989831 37.1081633,80.6298305 29,80.6298305 C20.8918367,80.6298305 13.5530612,80.04 8.34489796,79.1552542" id="Shape"></path>
                            <path d="M8.28571429,143.328814 C12.6061224,144.095593 18.4061224,144.626441 24.8571429,144.744407 C26.1591837,144.80339 27.5795918,144.80339 28.9408163,144.80339 C37.0489796,144.80339 44.3877551,144.213559 49.5959184,143.328814" id="Shape"></path>
                            <path d="M0.355102041,73.6108475 C0.355102041,64.8223729 5.50408163,57.2725424 12.9020408,53.7335593" id="Shape"></path>
                            <path d="M12.9020408,53.6745763 C18.5836735,50.9613559 20.7142857,45.1220339 20.7142857,38.4569492" id="Shape"></path>
                            <path d="M37.2857143,38.4569492 C37.2857143,45.1220339 39.4163265,50.9613559 45.0979592,53.6745763" id="Shape"></path>
                            <path d="M45.0387755,53.6745763 C52.4367347,57.2135593 57.5857143,64.8223729 57.5857143,73.5518644" id="Shape"></path>
                            <polyline id="Shape" points="37.2857143 38.4569492 37.2857143 33.620339 37.2857143 12.6813559 37.2857143 9.61423729 37.2857143 3.06711864 20.7142857 3.06711864 20.7142857 9.61423729 20.7142857 12.6813559 20.7142857 33.620339 20.7142857 38.4569492"></polyline>
                            <rect id="Rectangle-path" fill="#000000" fill-rule="nonzero" x="18.7612245" y="0.530847458" width="20.477551" height="12.1505085"></rect>
                            <rect id="Rectangle-path" fill="#000000" fill-rule="nonzero" x="20.7142857" y="9.61423729" width="16.5122449" height="24.0061017"></rect>
                            <path d="M24.9163265,112.657627 C24.6204082,113.070508 24.2653061,113.365424 23.7918367,113.601356 C24.0877551,113.48339 24.4428571,113.424407 24.7979592,113.424407 C24.8571429,113.424407 24.9163265,113.424407 24.9163265,113.424407 C26.3959184,113.48339 27.5795918,114.722034 27.5795918,116.19661 C27.5795918,117.671186 26.3959184,118.909831 24.9163265,118.968814 C24.8571429,118.968814 24.8571429,118.968814 24.7979592,118.968814 C23.2591837,118.968814 22.0163265,117.730169 22.0163265,116.19661 C22.0163265,115.075932 22.7265306,114.07322 23.6734694,113.601356 C23.377551,113.719322 23.022449,113.778305 22.6673469,113.778305 C21.1285714,113.778305 19.8857143,112.539661 19.8857143,111.006102 C19.8857143,109.472542 21.1285714,108.233898 22.6673469,108.233898 C23.6142857,108.233898 24.3836735,108.705763 24.9163265,109.354576 L24.9163265,112.657627 Z M24.9163265,92.6623729 C24.6204082,92.5444068 24.3244898,92.4854237 23.9693878,92.4854237 C23.6142857,92.4854237 23.2591837,92.5444068 22.9040816,92.6623729 C22.7857143,92.7213559 22.6673469,92.780339 22.5489796,92.8983051 C21.7204082,93.3701695 21.1877551,94.2549153 21.1877551,95.2576271 C21.1877551,96.7911864 22.4306122,98.0298305 23.9693878,98.0298305 C24.3244898,98.0298305 24.6204082,97.9708475 24.9163265,97.8528814 C25.9816327,97.4989831 26.7510204,96.4372881 26.7510204,95.2576271 C26.7510204,94.0779661 25.9816327,93.0752542 24.9163265,92.6623729 Z M29,80.6298305 C20.8918367,80.6298305 13.5530612,80.04 8.34489796,79.1552542 L8.34489796,143.328814 C12.6653061,144.095593 18.4653061,144.626441 24.9163265,144.744407 C26.2183673,144.80339 27.6387755,144.80339 29,144.80339 C37.1081633,144.80339 44.4469388,144.213559 49.655102,143.328814 L49.655102,79.1552542 C44.4469388,80.04 37.1081633,80.6298305 29,80.6298305 Z M24.9163265,97.9118644 C24.6204082,98.0298305 24.3244898,98.0888136 23.9693878,98.0888136 C22.4306122,98.0888136 21.1877551,96.8501695 21.1877551,95.3166102 C21.1877551,94.2549153 21.7204082,93.3701695 22.5489796,92.9572881 C22.6673469,92.839322 22.7857143,92.780339 22.9040816,92.7213559 C23.2,92.6033898 23.555102,92.5444068 23.9693878,92.5444068 C24.3244898,92.5444068 24.6204082,92.6033898 24.9163265,92.7213559 L24.9163265,97.9118644 Z" id="Shape"></path>
                            <path d="M43.9734694,131.591186 L43.9734694,138.551186 C39.5938776,139.023051 34.5040816,139.258983 29,139.258983 C23.4959184,139.258983 18.4061224,138.964068 14.0265306,138.551186 L14.0265306,131.591186 C18.4061224,132.063051 23.4959184,132.298983 29,132.298983 C34.5040816,132.298983 39.6530612,132.004068 43.9734694,131.591186 Z" id="Shape" fill="#000000" fill-rule="nonzero"></path>
                            <g transform="translate(15.979592, 87.294915)">
                                <path d="M8.28571429,3.00813559 C8.28571429,3.3620339 8.22653061,3.7159322 8.10816327,4.06983051 C7.93061224,4.42372881 7.75306122,4.71864407 7.51632653,5.01355932 C7.51632653,5.01355932 7.51632653,5.01355932 7.51632653,5.01355932 C7.33877551,5.19050847 7.16122449,5.30847458 6.9244898,5.42644068 C6.80612245,5.48542373 6.6877551,5.54440678 6.56938776,5.66237288 C6.27346939,5.78033898 5.91836735,5.83932203 5.56326531,5.83932203 C4.0244898,5.83932203 2.78163265,4.60067797 2.78163265,3.06711864 C2.78163265,1.53355932 4.0244898,0.294915254 5.56326531,0.294915254 C7.04285714,0.235932203 8.28571429,1.47457627 8.28571429,3.00813559 Z" id="Shape"></path>
                                <path d="M8.93673469,10.6169492 C10.0020408,10.2630508 10.7714286,9.20135593 10.7714286,8.02169492 C10.7714286,6.78305085 10.0020408,5.78033898 8.93673469,5.42644068" id="Shape"></path>
                                <ellipse id="Oval" cx="11.1265306" cy="3.3620339" rx="2.78163265" ry="2.77220339"></ellipse>
                                <ellipse id="Oval" cx="13.6122449" cy="8.31661017" rx="2.78163265" ry="2.77220339"></ellipse>
                                <ellipse id="Oval" cx="18.9387755" cy="18.1667797" rx="2.78163265" ry="2.77220339"></ellipse>
                                <ellipse id="Oval" cx="16.3938776" cy="13.1532203" rx="2.78163265" ry="2.77220339"></ellipse>
                                <ellipse id="Oval" cx="19.1755102" cy="8.31661017" rx="2.78163265" ry="2.77220339"></ellipse>
                                <ellipse id="Oval" cx="15.8020408" cy="22.8264407" rx="2.78163265" ry="2.77220339"></ellipse>
                                <ellipse id="Oval" cx="4.9122449" cy="12.6813559" rx="2.78163265" ry="2.77220339"></ellipse>
                                <ellipse id="Oval" cx="10.5346939" cy="13.0352542" rx="2.78163265" ry="2.77220339"></ellipse>
                                <ellipse id="Oval" cx="13.3163265" cy="17.8128814" rx="2.78163265" ry="2.77220339"></ellipse>
                                <path d="M8.93673469,25.3627119 C9.29183673,24.8908475 9.46938776,24.36 9.46938776,23.7111864 C9.46938776,23.0623729 9.29183673,22.5315254 8.93673469,22.059661" id="Shape"></path>
                                <ellipse id="Oval" cx="22.7857143" cy="34.6230508" rx="2.78163265" ry="2.77220339"></ellipse>
                                <ellipse id="Oval" cx="3.25510204" cy="28.1349153" rx="2.78163265" ry="2.77220339"></ellipse>
                            </g>
                        </g>
                    </g>
                    <g id="ilustracion" transform="translate(0.000000, 154.000000)">
                        <polyline id="Shape" stroke="#000000" stroke-width="3" points="102.228395 80.7553517 150 100.816514 150 105.122324 93.1707819 129 8 93.1834862 8 88.8776758 60.3491084 66.8593272 60.3491084 66.8593272 64.7805213 65 95.5569273 77.9174312"></polyline>
                        <path d="M93,124 L93,128" id="Shape" stroke="#000000" stroke-width="3"></path>
                        <polyline id="Shape" stroke="#000000" stroke-width="3" points="150 101.016416 93.1707819 125 8 89"></polyline>
                        <polyline id="Shape" stroke="#000000" stroke-width="2.25" points="97 119 92.8816568 121 89 119.111111"></polyline>
                        <polyline id="Shape" stroke="#000000" stroke-width="2.25" points="135 98 140 100.153846 135.606061 102"></polyline>
                        <polyline id="Shape" stroke="#000000" stroke-width="2.25" points="60 70 64.5947368 68 69 69.902439"></polyline>
                        <polyline id="Shape" stroke="#000000" stroke-width="2.25" points="22 91 17 88.8795181 21.4285714 87"></polyline>
                        <g id="Group" transform="translate(82.000000, 47.000000)" stroke="#000000">
                            <rect id="Rectangle-path" stroke-width="2.99997123" transform="translate(25.415888, 23.660150) rotate(45.000000) translate(-25.415888, -23.660150) " x="22.0349208" y="-4.56357953" width="6.76193515" height="56.4474587"></rect>
                            <polyline id="Shape" stroke-width="3" points="7.889 46.011 2.646 48.657 1.519 47.53 0.441 46.452 3.087 41.209"></polyline>
                            <path d="M1.519,47.53 L0.245,48.804" id="Shape" stroke-width="3" stroke-linecap="round"></path>
                            <rect id="Rectangle-path" stroke-width="2.99997123" transform="translate(46.183865, 2.890052) rotate(45.000000) translate(-46.183865, -2.890052) " x="43.4643907" y="1.76306266" width="5.43894784" height="2.25397838"></rect>
                        </g>
                        <path d="M40,62 L56,69" id="Shape" stroke="#000000" stroke-width="4.5"></path>
                        <polygon id="Shape" fill="#000000" fill-rule="nonzero" points="60 67.0752688 57.3947368 66 51 69.0107527 51 71"></polygon>
                        <path d="M36.9770379,22 C40.6796785,23.1838565 43,24.7623318 43,26.5381166 L42.9506315,26.8340807 C42.6544202,28.6591928 39.9885189,30.2376682 35.89093,31.3721973 C35.0022962,31.6188341 34.1136625,31.8161435 33.1262916,32.0134529 C32.2376579,32.161435 31.2996556,32.3587444 30.3616533,32.4573991 C28.880597,32.6547085 27.3008037,32.8026906 25.6222732,32.9013453 C24.7336395,32.9506726 23.8450057,33 22.9070034,33 C22.4626866,33 21.9690011,33 21.4753157,33 C21.0309989,33 20.6360505,33 20.1917336,33 C17.7726751,32.9506726 15.4523536,32.8026906 13.3295063,32.5067265 C10.6636051,32.161435 8.2445465,31.6681614 6.26980482,31.0762332 C2.61653272,29.9910314 0.296211251,28.4618834 0.0493685419,26.7847534 L0,26.4887892 C0,24.8116592 2.1228473,23.2331839 5.57864524,22.0986547" id="Shape" stroke="#000000" stroke-width="3"></path>
                        <path d="M32,21 C30.1157025,20.5384615 28.1322314,20.1538462 26,20" id="Shape" stroke="#000000" stroke-width="3"></path>
                        <path d="M21,20 C18.1677019,20.0833333 15.484472,20.4166667 13,21" id="Shape" stroke="#000000" stroke-width="3"></path>
                        <path d="M43,26 L42.9506881,26.2926829 L39.4002294,68.5853659 C39.4002294,71.5609756 31.4116972,74 21.5,74 C11.6376147,74 3.59977064,71.6097561 3.59977064,68.5853659 L0.0493119266,26.2926829 L0,26" id="Shape" stroke="#000000" stroke-width="3"></path>
                        <g id="Group" transform="translate(30.000000, 3.000000)" stroke="#000000">
                            <path d="M8.5,4.03050847 L6.8,18.2355932 L5.7,27.6237288 C4.8,27.8694915 3.85,28.0661017 2.85,28.2627119 C1.95,28.4101695 1,28.6067797 0.05,28.7050847 L1.45,17.0067797 L3.05,3.39152542 L5.75,3.68644068 L8.5,4.03050847 Z" id="Shape" stroke-width="3"></path>
                            <polyline id="Shape" stroke-width="2.25" points="2.9 28.2627119 4.15 17.4983051 5.8 3.68644068"></polyline>
                            <path d="M3.2,2.65423729 C3.35,1.17966102 4.75,0.147457627 6.25,0.294915254 C7.75,0.442372881 8.8,1.81864407 8.65,3.29322034" id="Shape" stroke-width="3"></path>
                        </g>
                        <g id="Group" transform="translate(20.000000, 0.000000)" stroke="#000000">
                            <path d="M5.58461538,3.54626866 L5.44615385,19.8492537 L5.35384615,32.7044776 C4.52307692,32.7537313 3.69230769,32.8029851 2.81538462,32.8029851 C2.4,32.8029851 1.93846154,32.8029851 1.47692308,32.8029851 C1.06153846,32.8029851 0.692307692,32.8029851 0.276923077,32.8029851 L0.369230769,19.7507463 L0.507692308,3.54626866 L3.04615385,3.54626866 L5.58461538,3.54626866 Z" id="Shape" stroke-width="3"></path>
                            <polyline id="Shape" stroke-width="2.25" points="2.81538462 32.7537313 2.91538462 19.7014925 3.06538462 3.49701493"></polyline>
                            <path d="M0.553846154,2.70895522 C0.553846154,1.23134328 1.70769231,0.0492537313 3.09230769,0.0492537313 C4.47692308,0.0492537313 5.58461538,1.28059701 5.58461538,2.75820896" id="Shape" stroke-width="3"></path>
                        </g>
                        <g id="Group" transform="translate(4.000000, 1.000000)" stroke="#000000">
                            <polyline id="Shape" stroke-width="3" points="8.85789474 30.80625 7.95789474 18.9875 7.2 8.71875 6.77368421 3.4875"></polyline>
                            <polyline id="Shape" stroke-width="3" points="0.142105263 4.0203125 0.236842105 5.4734375 0.521052632 9.2515625 1.42105263 20.5375 1.56315789 22.5234375 2.08421053 29.4015625"></polyline>
                            <path d="M0.142105263,4.0203125 C-4.30211422e-15,2.13125 1.37368421,0.484375 3.22105263,0.3390625 C5.06842105,0.19375 6.67894737,1.5984375 6.82105263,3.4875" id="Shape" stroke-width="3"></path>
                            <polyline id="Shape" stroke-width="2.25" points="3.45789474 9.009375 7.2 8.71875 6.91578947 4.940625 0.236842105 5.4734375 0.521052632 9.2515625"></polyline>
                            <polyline id="Shape" stroke-width="2.25" points="4.45263158 22.28125 4.26315789 19.7140625 3.45789474 9.009375 3.31578947 7.1203125"></polyline>
                            <path d="M4.45263158,22.28125 C4.5,23.1046875 3.93157895,23.83125 3.12631579,23.8796875 C2.32105263,23.928125 1.61052632,23.346875 1.56315789,22.5234375" id="Shape" stroke-width="2.25"></path>
                        </g>
                    </g>
                    <g id="identidad-corporativa" transform="translate(95.000000, 0.000000)">
                        <polyline id="Shape" stroke="#000000" stroke-width="3" points="206 139 206 164.186603 111.076551 219 16 164.186603 16 139"></polyline>
                        <polyline id="Shape" stroke="#000000" stroke-width="3" points="16 80 16 54.8899522 111.076551 0 206 54.8899522 206 80"></polyline>
                        <polyline id="Shape" stroke="#000000" stroke-width="3" points="22 81 22 60.0193548 109.538327 9 197 60.0193548 197 81"></polyline>
                        <polyline id="Shape" stroke="#000000" stroke-width="3" points="197 139 197 159.980645 109.538327 211 22 159.980645 22 139"></polyline>
                        <polygon id="Shape" stroke="#000000" stroke-width="3" points="219 141 214.41841 111 218.92364 81 0 81 4.58158996 111 0 141"></polygon>
                        <g id="Group" transform="translate(60.000000, 33.000000)" stroke="#000000" stroke-width="3">
                            <g transform="translate(49.701152, 0.000000)" id="Shape">
                                <path d="M0.688169792,49.453125 L0.688169792,0.546875"></path>
                                <path d="M10.7048634,49.453125 L10.7048634,6.484375"></path>
                                <path d="M20.7215571,49.453125 L20.7215571,12.421875"></path>
                                <path d="M30.7382507,49.453125 L30.7382507,18.28125"></path>
                                <path d="M40.7549443,49.453125 L40.7549443,23.515625"></path>
                                <path d="M50.771638,49.453125 L50.771638,30.15625"></path>
                            </g>
                            <g transform="translate(0.000000, 6.250000)" id="Shape">
                                <path d="M40.2961645,43.203125 L40.2961645,0.234375"></path>
                                <path d="M30.2794708,43.203125 L30.2794708,6.171875"></path>
                                <path d="M20.2627772,43.203125 L20.2627772,12.03125"></path>
                                <path d="M10.2460836,43.203125 L10.2460836,17.265625"></path>
                                <path d="M0.229389931,43.203125 L0.229389931,23.90625"></path>
                            </g>
                        </g>
                        <g id="Group" transform="translate(60.000000, 139.000000)" stroke="#000000" stroke-width="3">
                            <g id="Shape">
                                <path d="M50.3893214,0.703125 L50.3893214,49.6875"></path>
                                <path d="M40.2961645,0.703125 L40.2961645,43.75"></path>
                                <path d="M30.2794708,0.703125 L30.2794708,37.8125"></path>
                                <path d="M20.2627772,0.703125 L20.2627772,31.875"></path>
                                <path d="M10.2460836,0.703125 L10.2460836,26.71875"></path>
                                <path d="M0.229389931,0.703125 L0.229389931,20.078125"></path>
                            </g>
                            <g transform="translate(60.406015, 0.000000)" id="Shape">
                                <path d="M0,0.703125 L0,43.75"></path>
                                <path d="M10.0166936,0.703125 L10.0166936,37.8125"></path>
                                <path d="M20.0333873,0.703125 L20.0333873,31.875"></path>
                                <path d="M30.0500809,0.703125 L30.0500809,26.71875"></path>
                                <path d="M40.0667745,0.703125 L40.0667745,20.078125"></path>
                            </g>
                        </g>
                        <path d="M55.3677419,111.93299 C54.3290323,110.695876 52.9193548,109.845361 51.1387097,109.381443 C51.6580645,109.149485 51.9548387,108.994845 52.1774194,108.917526 C52.4,108.840206 52.6967742,108.530928 53.216129,108.14433 C54.7,106.984536 55.3677419,105.206186 55.3677419,102.886598 C55.3677419,100.953608 54.7,99.1752577 53.4387097,97.628866 C52.6967742,96.8556701 51.6580645,96.1597938 50.2483871,95.6958763 C48.8387097,95.2319588 47.1322581,95 45.2032258,95 L34,95 L34,125 L46.6129032,125 C50.5451613,125 53.3645161,124.072165 54.9225806,122.216495 C56.3322581,120.592784 57,118.737113 57,116.649485 C56.9258065,114.793814 56.4064516,113.247423 55.3677419,111.93299 Z M40.3806452,100.721649 L43.4967742,100.721649 C45.3516129,100.721649 46.6870968,100.953608 47.5032258,101.340206 C48.3193548,101.726804 48.6903226,102.654639 48.6903226,103.969072 C48.6903226,105.283505 48.2451613,106.21134 47.3548387,106.597938 C46.5387097,106.984536 45.2032258,107.216495 43.4225806,107.216495 L40.3806452,107.216495 L40.3806452,100.721649 Z M48.9129032,118.659794 C48.0225806,119.123711 46.6129032,119.35567 44.7580645,119.35567 L40.3806452,119.35567 L40.3806452,112.474227 L44.1645161,112.474227 C46.316129,112.474227 47.8741935,112.706186 48.8387097,113.092784 C49.8032258,113.556701 50.3225806,114.484536 50.3225806,115.876289 C50.3225806,117.268041 49.8774194,118.195876 48.9129032,118.659794 Z" id="Shape" fill="#000000" fill-rule="nonzero"></path>
                        <path d="M81.4837758,114.252577 C85.2418879,112.860825 87.159292,109.768041 87.159292,104.974227 C87.159292,101.494845 86.1622419,98.943299 84.1681416,97.3969072 C82.2507375,95.8505155 78.8761062,95 74.2743363,95 L63,95 L63,125 L69.6725664,125 L69.6725664,115.412371 L74.2743363,115.412371 L80.8702065,125 L89,125 L81.4837758,114.252577 Z M79.1061947,108.530928 C78.2625369,109.304124 76.7286136,109.690722 74.4277286,109.690722 L69.5958702,109.690722 L69.5958702,100.798969 L74.5811209,100.798969 C76.7286136,100.798969 78.1858407,101.108247 79.0294985,101.726804 C79.8731563,102.345361 80.3333333,103.427835 80.3333333,105.051546 C80.3333333,106.675258 79.9498525,107.757732 79.1061947,108.530928 Z" id="Shape" fill="#000000" fill-rule="nonzero"></path>
                        <path d="M109.847255,95 L103.231504,95 L90,125 L97.2458234,125 L100.081146,118.505155 L112.918854,118.505155 L115.754177,125 L123,125 L109.847255,95 Z M102.75895,112.628866 L106.618138,103.969072 L110.398568,112.628866 L102.75895,112.628866 Z" id="Shape" fill="#000000" fill-rule="nonzero"></path>
                        <polygon id="Shape" fill="#000000" fill-rule="nonzero" points="145.513966 95 145.513966 114.329897 131.108939 95 125 95 125 125 131.561453 125 131.561453 106.21134 145.513966 125 152 125 152 95"></polygon>
                        <path d="M182.704545,98.943299 C179.866477,96.314433 175.801136,95 170.508523,95 L160,95 L160,125 L170.201705,125 C175.877841,125 180.096591,123.608247 182.857955,120.902062 C185.619318,118.195876 187,114.484536 187,109.845361 C187,105.206186 185.542614,101.572165 182.704545,98.943299 Z M177.872159,116.804124 C176.261364,118.350515 173.883523,119.123711 170.892045,119.123711 L166.673295,119.123711 L166.673295,100.876289 L170.355114,100.876289 C173.730114,100.876289 176.184659,101.649485 177.872159,103.273196 C179.482955,104.819588 180.326705,107.139175 180.326705,110.07732 C180.326705,113.015464 179.482955,115.257732 177.872159,116.804124 Z" id="Shape" fill="#000000" fill-rule="nonzero"></path>
                        <circle id="Oval" fill="#000000" fill-rule="nonzero" cx="201" cy="111" r="4"></circle>
                        <circle id="Oval" fill="#000000" fill-rule="nonzero" cx="20" cy="111" r="4"></circle>
                    </g>
                </g>
            </g>
        </g>
    </g>
</svg>