<?xml version="1.0" encoding="UTF-8"?>
<svg width="571px" height="301px" viewBox="0 0 571 301" version="1.1" xmlns="http://www.w3.org/2000/svg" xmlns:xlink="http://www.w3.org/1999/xlink">
    <!-- Generator: Sketch 51.3 (57544) - http://www.bohemiancoding.com/sketch -->
    <title>develop-services</title>
    <desc>Created with Sketch.</desc>
    <defs></defs>
    <g id="v2" stroke="none" stroke-width="1" fill="none" fill-rule="evenodd">
        <g id="Desktop-HD" transform="translate(-782.000000, -1762.000000)">
            <g id="Te-ayudamos" transform="translate(0.000000, 1543.000000)">
                <g id="develop-services" transform="translate(782.000000, 220.000000)">
                    <g id="web" transform="translate(0.000000, 11.000000)" fill="#000000" fill-rule="nonzero">
                        <path d="M12,224 L129.962132,224 L135.892006,224 L314,224 L314,101.003043 L314,96.7434077 L314,14 L12,14 L12,224 Z M177.718794,170.541582 L186.190042,185.130832 L184.284011,186.408722 L174.647966,174.481744 L177.718794,170.541582 Z M216.898317,126.34787 L233.20547,152.544625 L231.51122,153.716024 L212.027349,127.625761 L216.898317,126.34787 Z M225.899018,198.655172 C226.852034,199.61359 227.91094,200.039554 229.181627,200.039554 C230.981767,200.039554 232.358345,199.294118 233.523142,197.909736 L235.852735,200.359026 C234.052595,202.488844 231.828892,203.447262 229.393408,203.447262 C226.957924,203.447262 224.840112,202.701826 223.251753,201.104462 C221.663394,199.507099 220.816269,197.483773 220.816269,195.140974 C220.816269,192.798174 221.663394,190.668357 223.251753,189.070994 C224.946003,187.473631 226.957924,186.621704 229.287518,186.621704 C231.934783,186.621704 234.158485,187.686613 235.958626,189.709939 L233.734923,192.26572 C232.570126,190.881339 231.193548,190.135903 229.499299,190.135903 C228.122721,190.135903 226.957924,190.561866 226.004909,191.520284 C225.051893,192.478702 224.52244,193.650101 224.52244,195.140974 C224.52244,196.631846 225.051893,197.803245 225.899018,198.655172 Z M203.873773,197.590264 L203.873773,200.997972 L192.649369,195.673428 L192.649369,192.478702 L203.873773,187.154158 L203.873773,190.561866 L196.461431,193.969574 L203.873773,197.590264 Z M274.502805,123.89858 L266.031557,113.462475 L270.796634,112.184584 L276.514727,122.514199 L274.502805,123.89858 Z M272.596774,125.282961 L270.584853,126.667343 L261.160589,114.953347 L268.678822,128.051724 L266.772791,129.436105 L256.183731,116.124746 L265.925666,113.568966 L272.596774,125.282961 Z M264.654979,130.713996 L262.748948,131.991886 L251.206872,117.296146 L256.07784,116.018256 L264.654979,130.713996 Z M152.41094,208.452333 L149.975456,206.003043 L152.940393,202.169371 L155.058205,206.641988 L152.41094,208.452333 Z M151.140252,209.30426 L148.387097,211.221095 L146.904628,209.730223 L149.657784,206.216024 L151.140252,209.30426 Z M156.434783,205.68357 L153.046283,202.06288 L155.375877,199.081136 L156.117111,198.122718 L158.976157,203.873225 L156.434783,205.68357 Z M146.481066,210.369168 L147.2223,212.073022 L142.774895,215.161258 L146.481066,210.369168 Z M215.945302,184.491886 L219.22791,184.491886 L209.485975,205.896552 L206.203366,205.896552 L215.945302,184.491886 Z M239.876578,189.070994 C241.464937,187.473631 243.476858,186.621704 245.912342,186.621704 C248.347826,186.621704 250.359748,187.473631 251.948107,189.070994 C253.536466,190.668357 254.38359,192.691684 254.38359,195.034483 C254.38359,197.377282 253.536466,199.400609 251.948107,200.997972 C250.359748,202.595335 248.347826,203.447262 245.912342,203.447262 C243.476858,203.447262 241.464937,202.595335 239.876578,200.997972 C238.288219,199.400609 237.441094,197.377282 237.441094,195.034483 C237.441094,192.691684 238.288219,190.668357 239.876578,189.070994 Z M257.560309,187.047667 L263.278401,187.047667 C266.137447,187.047667 268.36115,187.793103 269.949509,189.177485 C271.537868,190.561866 272.279102,192.585193 272.279102,195.140974 C272.279102,197.696755 271.537868,199.720081 270.0554,201.104462 C268.572931,202.488844 266.243338,203.340771 263.172511,203.340771 L257.666199,203.340771 L257.666199,187.047667 L257.560309,187.047667 Z M275.34993,187.047667 L286.997896,187.047667 L286.997896,190.242394 L278.95021,190.242394 L278.95021,193.650101 L286.150771,193.650101 L286.150771,196.738337 L278.95021,196.738337 L278.95021,200.146045 L287.315568,200.146045 L287.315568,203.340771 L275.34993,203.340771 L275.34993,187.047667 Z M290.174614,197.590264 L297.586957,194.076065 L290.174614,190.668357 L290.174614,187.260649 L301.399018,192.585193 L301.399018,195.779919 L290.174614,201.104462 L290.174614,197.590264 Z M293.880785,110.48073 L290.704067,106.966531 L295.257363,105.795132 L296.52805,108.670385 L293.880785,110.48073 Z M292.504208,111.545639 L290.068724,113.249493 L285.727209,108.350913 L290.386396,107.179513 L292.504208,111.545639 Z M288.480365,114.314402 L286.150771,115.911765 L280.750351,109.628803 L285.409537,108.457404 L288.480365,114.314402 Z M284.456522,117.083164 L282.232819,118.574037 L275.773492,110.906694 L280.538569,109.628803 L284.456522,117.083164 Z M280.538569,119.745436 L278.420757,121.236308 L271.008415,112.184584 L275.773492,110.906694 L280.538569,119.745436 Z M251.206872,117.402637 L260.737027,133.482759 L258.936886,134.760649 L246.335905,118.680527 L251.206872,117.402637 Z M160.458626,202.914807 L156.117111,198.122718 L159.187938,194.289047 L162.788219,201.317444 L160.458626,202.914807 Z M295.575035,105.795132 L303.940393,103.558824 L297.692847,107.924949 L295.575035,105.795132 Z M246.335905,118.680527 L256.819074,136.251521 L255.018934,137.529412 L241.464937,119.958418 L246.335905,118.680527 Z M235.429173,151.053753 L216.898317,126.34787 L221.769285,125.06998 L237.017532,149.882353 L235.429173,151.053753 Z M211.180224,127.838742 L211.921459,127.625761 L229.181627,155.313387 L227.593268,156.378296 L209.062412,130.394523 L211.180224,127.838742 Z M209.062412,130.501014 L225.369565,157.975659 L223.675316,159.147059 L205.568022,134.973631 L209.062412,130.501014 Z M205.462132,135.080122 L221.345722,160.744422 L219.651473,161.915822 L202.391304,139.020284 L205.462132,135.080122 Z M202.391304,139.020284 L217.42777,163.406694 L215.73352,164.578093 L199.320477,142.853955 L202.391304,139.020284 Z M199.320477,142.960446 L213.509818,166.175456 L211.815568,167.346856 L196.249649,146.900609 L199.320477,142.960446 Z M196.249649,146.900609 L209.697756,168.837728 L208.003506,170.009128 L193.178822,150.840771 L196.249649,146.900609 Z M193.178822,150.840771 L205.779804,171.606491 L203.979663,172.77789 L190.107994,154.780933 L193.178822,150.840771 Z M190.002104,154.780933 L201.755961,174.268763 L199.95582,175.546653 L186.931276,158.721095 L190.002104,154.780933 Z M174.542076,174.588235 L182.166199,187.899594 L180.260168,189.283976 L171.577139,178.528398 L174.542076,174.588235 Z M171.471248,178.528398 L178.354137,190.561866 L176.342216,191.946247 L168.506311,182.362069 L171.471248,178.528398 Z M168.400421,182.46856 L174.436185,193.224138 L172.424264,194.608519 L165.435484,186.302231 L168.400421,182.46856 Z M165.329593,186.408722 L170.518233,195.992901 L168.400421,197.483773 L162.258766,190.348884 L165.329593,186.408722 Z M162.258766,190.348884 L166.706171,198.655172 L164.482468,200.146045 L159.293829,194.182556 L162.258766,190.348884 Z M150.504909,200.146045 L147.963534,203.447262 C142.563114,203.23428 138.221599,198.761663 138.221599,193.224138 C138.221599,187.580122 142.774895,183.001014 148.387097,183.001014 C152.940393,183.001014 156.964236,186.089249 158.129032,190.455375 L150.504909,200.146045 Z M241.253156,116.657201 L241.253156,113.143002 L254.595372,113.143002 L241.253156,116.657201 Z M240.088359,120.27789 L241.359046,119.958418 L252.795231,139.020284 L250.995091,140.191684 L236.488079,121.236308 L240.088359,120.27789 Z M236.488079,121.236308 L248.877279,141.682556 L247.183029,142.853955 L231.617111,122.407708 L236.488079,121.236308 Z M231.617111,122.514199 L244.959327,144.451318 L243.265077,145.622718 L226.746143,123.792089 L231.617111,122.514199 Z M226.640252,123.792089 L240.935484,147.11359 L239.241234,148.28499 L221.769285,125.06998 L223.039972,124.750507 L226.640252,123.792089 Z M221.239832,121.875254 L219.12202,122.407708 L204.932679,103.984787 L165.223703,136.251521 L158.976157,131.033469 C160.882188,127.732252 161.835203,124.005071 161.835203,120.1714 C161.835203,108.03144 151.987377,98.0212982 139.809958,98.0212982 C127.738429,98.0212982 117.784712,107.924949 117.784712,120.1714 C117.784712,125.921907 120.008415,131.459432 123.926367,135.506085 L104.654278,149.988844 L104.654278,86.4137931 L221.239832,86.4137931 L221.239832,121.875254 Z M126.467742,133.69574 C122.867461,130.181542 120.85554,125.389452 120.85554,120.27789 C120.85554,109.735294 129.326788,101.216024 139.809958,101.216024 C150.293128,101.216024 158.764376,109.735294 158.764376,120.27789 C158.764376,123.472617 158.023142,126.454361 156.540673,129.223124 L145.104488,119.745436 L126.467742,133.69574 Z M144.998597,123.685598 L165.117812,140.404665 L204.297335,108.563895 L215.839411,123.472617 L209.803647,125.06998 C209.485975,125.176471 209.168303,125.389452 208.956522,125.602434 L188.519635,151.586207 L107.725105,151.586207 L144.998597,123.685598 Z M186.931276,158.721095 L197.838008,176.931034 L196.037868,178.208925 L183.860449,162.661258 L193.920056,179.699797 L192.119916,180.977688 L180.789621,166.707911 L190.002104,182.46856 L188.096073,183.74645 L177.612903,170.648073 L186.931276,158.721095 Z M160.352735,187.580122 C158.234923,183.001014 153.575736,179.912779 148.387097,179.912779 C143.304348,179.912779 138.856942,182.788032 136.63324,187.047667 C134.409537,182.788032 129.962132,179.912779 124.879383,179.912779 C117.572931,179.912779 111.643058,185.876268 111.643058,193.224138 C111.643058,200.572008 117.572931,206.535497 124.879383,206.535497 C129.962132,206.535497 134.409537,203.660243 136.63324,199.400609 C138.43338,202.914807 141.821879,205.470588 145.739832,206.216024 L134.303647,220.805274 L104.654278,220.805274 L104.654278,166.494929 L176.765778,166.494929 L160.352735,187.580122 Z M135.150771,193.224138 C135.150771,198.868154 130.597475,203.447262 124.985273,203.447262 C119.373072,203.447262 114.819776,198.868154 114.819776,193.224138 C114.819776,187.580122 119.373072,183.001014 124.985273,183.001014 C130.597475,183.001014 135.150771,187.473631 135.150771,193.224138 Z M15.1767181,17.1947262 L310.717391,17.1947262 L310.717391,98.4472617 L266.349229,110.054767 L238.288219,110.054767 L238.288219,117.402637 L224.310659,121.023327 L224.310659,83.3255578 L101.58345,83.3255578 L101.58345,154.567951 L186.084151,154.567951 L179.095372,163.406694 L101.47756,163.406694 L101.47756,220.805274 L15.0708275,220.805274 L15.0708275,17.1947262 L15.1767181,17.1947262 Z" id="Shape"></path>
                        <path d="M234,36 L92,36 L92,63 L234,63 L234,36 Z M230.827997,59.7857143 L95.172003,59.7857143 L95.172003,39.2142857 L230.827997,39.2142857 L230.827997,59.7857143 Z" id="Shape"></path>
                        <path d="M49.5,63 C57,63 63,56.8928571 63,49.5 C63,42.1071429 56.8928571,36 49.5,36 C42.1071429,36 36,42.1071429 36,49.5 C36,56.8928571 42,63 49.5,63 Z M49.5,39.2142857 C55.1785714,39.2142857 59.7857143,43.8214286 59.7857143,49.5 C59.7857143,55.1785714 55.1785714,59.7857143 49.5,59.7857143 C43.8214286,59.7857143 39.2142857,55.1785714 39.2142857,49.5 C39.2142857,43.8214286 43.8214286,39.2142857 49.5,39.2142857 Z" id="Shape"></path>
                        <path d="M29,101 L89,101 L89,84 L29,84 L29,101 Z M31.9577465,86.9520958 L85.9366197,86.9520958 L85.9366197,98.1497006 L31.9577465,98.1497006 L31.9577465,86.9520958 Z" id="Shape"></path>
                        <path d="M29,128 L89,128 L89,111 L29,111 L29,128 Z M31.9577465,113.850299 L85.9366197,113.850299 L85.9366197,125.047904 L31.9577465,125.047904 L31.9577465,113.850299 Z" id="Shape"></path>
                        <path d="M29,154 L89,154 L89,137 L29,137 L29,154 Z M31.9577465,139.850299 L85.9366197,139.850299 L85.9366197,151.047904 L31.9577465,151.047904 L31.9577465,139.850299 Z" id="Shape"></path>
                        <path d="M29,181 L89,181 L89,164 L29,164 L29,181 Z M31.9577465,166.952096 L85.9366197,166.952096 L85.9366197,178.149701 L31.9577465,178.149701 L31.9577465,166.952096 Z" id="Shape"></path>
                        <path d="M29,207 L89,207 L89,190 L29,190 L29,207 Z M31.9577465,192.850299 L85.9366197,192.850299 L85.9366197,204.047904 L31.9577465,204.047904 L31.9577465,192.850299 Z" id="Shape"></path>
                        <path d="M299,84 L239,84 L239,101 L299,101 L299,84 Z M296.042254,98.1497006 L242.06338,98.1497006 L242.06338,86.9520958 L296.042254,86.9520958 L296.042254,98.1497006 Z" id="Shape"></path>
                        <rect id="Rectangle-path" x="171" y="113" width="12" height="3"></rect>
                        <rect id="Rectangle-path" x="176" y="94" width="36" height="3"></rect>
                        <rect id="Rectangle-path" x="108" y="106" width="9" height="3"></rect>
                        <rect id="Rectangle-path" x="108" y="132" width="9" height="3"></rect>
                        <path d="M246,200 C247.444444,200 248.666667,199.489796 249.555556,198.571429 C250.444444,197.653061 251,196.428571 251,195 C251,193.571429 250.555556,192.44898 249.555556,191.428571 C248.555556,190.408163 247.333333,190 246,190 C244.666667,190 243.333333,190.510204 242.444444,191.428571 C241.444444,192.44898 241,193.571429 241,195 C241,196.428571 241.444444,197.55102 242.444444,198.571429 C243.444444,199.591837 244.555556,200 246,200 Z" id="Shape"></path>
                        <path d="M266.71831,198.709677 C267.507042,197.849462 268,196.666667 268,195.053763 C268,193.44086 267.605634,192.150538 266.71831,191.290323 C265.929577,190.430108 264.647887,190 262.873239,190 L261,190 L261,200 L263.169014,200 C264.647887,199.892473 265.830986,199.462366 266.71831,198.709677 Z" id="Shape"></path>
                        <path d="M328,237.033768 L328,0 L0,0 L0,237.033768 L133.633548,237.033768 L133.633548,260.949731 L85.5974194,260.949731 L85.5974194,277 L242.190968,277 L242.190968,260.949731 L194.154839,260.949731 L194.154839,237.033768 L328,237.033768 Z M239.016774,264.138526 L239.016774,273.811205 L88.7716129,273.811205 L88.7716129,264.138526 L133.633548,264.138526 L194.154839,264.138526 L239.016774,264.138526 Z M136.807742,260.949731 L136.807742,237.246355 L190.980645,237.246355 L190.980645,260.949731 L136.807742,260.949731 Z M3.17419355,3.18879509 L324.825806,3.18879509 L324.825806,233.844973 L3.17419355,233.844973 L3.17419355,3.18879509 Z" id="Shape"></path>
                    </g>
                    <g id="apps-moviles" transform="translate(354.000000, 0.000000)" stroke="#000000" stroke-width="3">
                        <g id="Group" transform="translate(41.000000, 18.000000)">
                            <path d="M0.4,197.9 L0.4,139" id="Shape"></path>
                            <path d="M24.8,267.5 L27.1,267.5 L137.6,267.5 C146.4,267.5 153.6,260.3 153.6,251.5 L153.6,217.7" id="Shape"></path>
                            <path d="M153.7,162.3 L153.7,113.5" id="Shape"></path>
                            <path d="M109.8,0.5 L137.7,0.5 C146.5,0.5 153.7,7.7 153.7,16.5 L153.7,66.8" id="Shape"></path>
                            <path d="M0.4,82.4 L0.4,16.5 C0.4,7.7 7.6,0.5 16.4,0.5 L44.3,0.5" id="Shape"></path>
                            <path d="M10.8,192.4 L10.8,143" id="Shape"></path>
                            <polyline id="Shape" points="10.8 82.4 10.8 10.5 44.3 10.5"></polyline>
                            <polyline id="Shape" points="109.8 10.5 143.2 10.5 143.2 66.7"></polyline>
                            <path d="M143.2,159 L143.2,119.1" id="Shape"></path>
                            <polyline id="Shape" points="143.2 217.6 143.2 238.1 45.3 238.1"></polyline>
                        </g>
                        <circle id="Oval" cx="118" cy="270.4" r="7.8"></circle>
                        <path d="M54.3,298.3 L11.8,298.3 C5.5,298.3 0.3,293.2 0.3,286.8 L0.3,244.3 C0.3,238 5.4,232.8 11.8,232.8 L54.3,232.8 C60.6,232.8 65.8,237.9 65.8,244.3 L65.8,286.8 C65.8,293.2 60.7,298.3 54.3,298.3 Z" id="Shape"></path>
                        <path d="M63.2,152 L29.7,152 C24.7,152 20.6,147.9 20.6,142.9 L20.6,109.4 C20.6,104.4 24.7,100.3 29.7,100.3 L63.2,100.3 C68.2,100.3 72.3,104.4 72.3,109.4 L72.3,142.9 C72.3,147.9 68.2,152 63.2,152 Z" id="Shape"></path>
                        <path d="M203,126.2 L176.1,126.2 C172.1,126.2 168.8,122.9 168.8,118.9 L168.8,92 C168.8,88 172.1,84.7 176.1,84.7 L203,84.7 C207,84.7 210.3,88 210.3,92 L210.3,118.9 C210.2,122.9 207,126.2 203,126.2 Z" id="Shape"></path>
                        <path d="M206.3,235.7 L172.8,235.7 C167.8,235.7 163.7,231.6 163.7,226.6 L163.7,193.1 C163.7,188.1 167.8,184 172.8,184 L206.3,184 C211.3,184 215.4,188.1 215.4,193.1 L215.4,226.6 C215.3,231.6 211.3,235.7 206.3,235.7 Z" id="Shape"></path>
                        <path d="M65.8,289.2 L104.6,226.5" id="Shape" stroke-linecap="round" stroke-linejoin="round"></path>
                        <path d="M6.2,234.3 L80.1,195.6" id="Shape" stroke-linecap="round" stroke-linejoin="round"></path>
                        <path d="M61.8,235.7 L101.8,198.2" id="Shape" stroke-linecap="round" stroke-linejoin="round"></path>
                        <path d="M166.3,232.9 L136.5,203.8" id="Shape" stroke-linecap="round" stroke-linejoin="round"></path>
                        <path d="M166.3,186.8 L136.5,172.8" id="Shape" stroke-linecap="round" stroke-linejoin="round"></path>
                        <path d="M206.3,184 L166.3,171.2" id="Shape" stroke-linecap="round" stroke-linejoin="round"></path>
                        <path d="M68.8,150 L96.4,166.4" id="Shape" stroke-linecap="round" stroke-linejoin="round"></path>
                        <path d="M71.4,105.4 L96.4,142.3" id="Shape" stroke-linecap="round" stroke-linejoin="round"></path>
                        <path d="M25.6,151 L65.8,166.4" id="Shape" stroke-linecap="round" stroke-linejoin="round"></path>
                        <path d="M170.8,123.9 L150.8,138.5" id="Shape" stroke-linecap="round" stroke-linejoin="round"></path>
                        <path d="M206.3,125.3 L166.3,146.7" id="Shape" stroke-linecap="round" stroke-linejoin="round"></path>
                        <path d="M170.8,87 L145.8,115.5" id="Shape" stroke-linecap="round" stroke-linejoin="round"></path>
                        <g id="Group" transform="translate(85.000000, 0.000000)">
                            <path d="M54.3,66.3 L11.8,66.3 C5.5,66.3 0.3,61.2 0.3,54.8 L0.3,12.3 C0.3,6 5.4,0.8 11.8,0.8 L54.3,0.8 C60.6,0.8 65.8,5.9 65.8,12.3 L65.8,54.8 C65.8,61.2 60.6,66.3 54.3,66.3 Z" id="Shape"></path>
                            <path d="M65.3,57.9 L52.1,109.8" id="Shape" stroke-linecap="round" stroke-linejoin="round"></path>
                            <path d="M2,60.8 L15.4,109.8" id="Shape" stroke-linecap="round" stroke-linejoin="round"></path>
                        </g>
                    </g>
                </g>
            </g>
        </g>
    </g>
</svg>