<?xml version="1.0" encoding="utf-8"?>
<!-- Generator: Adobe Illustrator 21.0.0, SVG Export Plug-In . SVG Version: 6.00 Build 0)  -->
<svg version="1.1" id="Layer_1" xmlns="http://www.w3.org/2000/svg" xmlns:xlink="http://www.w3.org/1999/xlink" x="0px" y="0px"
	 viewBox="0 0 595.7 367.7" style="enable-background:new 0 0 595.7 367.7;" xml:space="preserve">
<style type="text/css">
	.st0{fill:#FFFFFF;stroke:#000000;stroke-width:3;stroke-miterlimit:10;}
	.st1{fill:none;stroke:#000000;stroke-width:3;stroke-miterlimit:10;}
	.st2{stroke:#000000;stroke-width:3;stroke-miterlimit:10;}
	.st3{fill:none;stroke:#000000;stroke-width:2.25;stroke-miterlimit:10;}
	.st4{fill:none;stroke:#000000;stroke-width:3;stroke-linecap:round;stroke-miterlimit:10;}
	.st5{fill:none;stroke:#000000;stroke-width:4.5;stroke-miterlimit:10;}
	.st6{fill:none;stroke:#000000;stroke-width:1.5;stroke-miterlimit:10;}
</style>
<g>
	<polyline class="st1" points="421.9,222.6 421.9,255.5 297.9,327.1 173.7,255.5 173.7,222.6 	"/>
	<polyline class="st1" points="173.7,145 173.7,112.2 297.9,40.5 421.9,112.2 421.9,145 	"/>
	<polyline class="st1" points="183.7,145 183.7,117.9 297.9,52 412,117.9 412,145 	"/>
	<polyline class="st1" points="412,222.6 412,249.7 297.9,315.6 183.7,249.7 183.7,222.6 	"/>
	<path class="st1" d="M441.2,145H154.5l6,38.8l-6,38.8h286.8l-6-38.8L441.2,145z M206.8,195.9V187h5.1c2.9,0,5,0.3,6.3,0.8
		c1.3,0.6,2,1.8,2,3.6s-0.6,3-1.9,3.6c-1.2,0.6-3.1,0.9-5.6,0.9H206.8z"/>
	<g>
		<g>
			<line class="st1" x1="297.9" y1="145" x2="297.9" y2="82.4"/>
			<line class="st1" x1="311" y1="145" x2="311" y2="90"/>
			<line class="st1" x1="324.1" y1="145" x2="324.1" y2="97.6"/>
			<line class="st1" x1="337.2" y1="145" x2="337.2" y2="105.1"/>
			<line class="st1" x1="350.3" y1="145" x2="350.3" y2="111.8"/>
			<line class="st1" x1="363.4" y1="145" x2="363.4" y2="120.3"/>
		</g>
		<g>
			<line class="st1" x1="284.7" y1="145" x2="284.7" y2="90"/>
			<line class="st1" x1="271.6" y1="145" x2="271.6" y2="97.6"/>
			<line class="st1" x1="258.5" y1="145" x2="258.5" y2="105.1"/>
			<line class="st1" x1="245.4" y1="145" x2="245.4" y2="111.8"/>
			<line class="st1" x1="232.3" y1="145" x2="232.3" y2="120.3"/>
		</g>
	</g>
	<g>
		<g>
			<line class="st1" x1="297.9" y1="222.6" x2="297.9" y2="285.3"/>
			<line class="st1" x1="284.7" y1="222.6" x2="284.7" y2="277.7"/>
			<line class="st1" x1="271.6" y1="222.6" x2="271.6" y2="270.1"/>
			<line class="st1" x1="258.5" y1="222.6" x2="258.5" y2="262.5"/>
			<line class="st1" x1="245.4" y1="222.6" x2="245.4" y2="255.9"/>
			<line class="st1" x1="232.3" y1="222.6" x2="232.3" y2="247.4"/>
		</g>
		<g>
			<line class="st1" x1="311" y1="222.6" x2="311" y2="277.7"/>
			<line class="st1" x1="324.1" y1="222.6" x2="324.1" y2="270.1"/>
			<line class="st1" x1="337.2" y1="222.6" x2="337.2" y2="262.5"/>
			<line class="st1" x1="350.3" y1="222.6" x2="350.3" y2="255.9"/>
			<line class="st1" x1="363.4" y1="222.6" x2="363.4" y2="247.4"/>
		</g>
	</g>
	<g>
		<path d="M227,186.3c-1.4-1.6-3.3-2.7-5.7-3.3c0.7-0.3,1.1-0.5,1.4-0.6c0.3-0.1,0.7-0.5,1.4-1c2-1.5,2.9-3.8,2.9-6.8
			c0-2.5-0.9-4.8-2.6-6.8c-1-1-2.4-1.9-4.3-2.5c-1.9-0.6-4.2-0.9-6.8-0.9h-15.1v38.8h17c5.3,0,9.1-1.2,11.2-3.6
			c1.9-2.1,2.8-4.5,2.8-7.2C229.1,190,228.4,188,227,186.3z M206.8,171.8h4.2c2.5,0,4.3,0.3,5.4,0.8c1.1,0.5,1.6,1.7,1.6,3.4
			c0,1.7-0.6,2.9-1.8,3.4c-1.1,0.5-2.9,0.8-5.3,0.8h-4.1V171.8z M218.3,195c-1.2,0.6-3.1,0.9-5.6,0.9h-5.9V187h5.1
			c2.9,0,5,0.3,6.3,0.8c1.3,0.6,2,1.8,2,3.6S219.6,194.4,218.3,195z"/>
		<path d="M260.5,189.3c4.9-1.8,7.4-5.8,7.4-12c0-4.5-1.3-7.8-3.9-9.8c-2.5-2-6.9-3.1-12.9-3.1h-14.7v38.8h8.7v-12.4h6l8.6,12.4
			h10.6L260.5,189.3z M257.4,181.9c-1.1,1-3.1,1.5-6.1,1.5h-6.3v-11.5h6.5c2.8,0,4.7,0.4,5.8,1.2c1.1,0.8,1.7,2.2,1.7,4.3
			S258.5,180.9,257.4,181.9z"/>
		<path d="M296.8,164.4h-8.4l-16.8,38.8h9.2l3.6-8.4h16.3l3.6,8.4h9.2L296.8,164.4z M287.8,187.2l4.9-11.2l4.8,11.2H287.8z"/>
		<path d="M345.2,164.4v25l-19.1-25h-8.1v38.8h8.7v-24.3l18.5,24.3h8.6v-38.8H345.2z"/>
		<path d="M393,169.5c-3.7-3.4-9-5.1-15.9-5.1h-13.7v38.8h13.3c7.4,0,12.9-1.8,16.5-5.3c3.6-3.5,5.4-8.3,5.4-14.3
			C398.6,177.6,396.7,172.9,393,169.5z M386.7,192.6c-2.1,2-5.2,3-9.1,3h-5.5V172h4.8c4.4,0,7.6,1,9.8,3.1c2.1,2,3.2,5,3.2,8.8
			C389.9,187.7,388.8,190.6,386.7,192.6z"/>
	</g>
	<circle cx="416.8" cy="183.8" r="4.9"/>
	<circle cx="178.9" cy="183.8" r="4.9"/>
</g>
</svg>
