<?xml version="1.0" encoding="utf-8"?>
<!-- Generator: Adobe Illustrator 22.0.1, SVG Export Plug-In . SVG Version: 6.00 Build 0)  -->
<svg version="1.1" id="Layer_1" xmlns="http://www.w3.org/2000/svg" xmlns:xlink="http://www.w3.org/1999/xlink" x="0px" y="0px"
	 viewBox="0 0 595.7 367.7" style="enable-background:new 0 0 595.7 367.7;" xml:space="preserve">
<style type="text/css">
	.st5{fill:#FF00FE;}
</style>
<g>
	<polygon class="st5" points="451,258 451,266.8 334.3,315.6 159.4,242.4 159.4,233.6 266.8,188.6 266.9,188.6 266.9,188.6 
		276,184.8 339.2,211.2 339.2,211.2 398.7,151.7 399.7,152.6 403,149.3 410.8,157.2 407.5,160.5 408.5,161.4 352.9,217 		"/>
	<line class="st5" x1="225.9" y1="178" x2="258.6" y2="191.6"/>
	<polygon class="st5" points="266.9,188.6 266.8,188.6 247.9,196.5 247.9,192.2 253.9,189.7 261.4,186.6 	"/>
	<path class="st5" d="M231.8,105.3l0,0.6l0,0l-7.2,86.7c0,6.1-16.2,11.1-36.3,11.1c-20,0-36.3-5-36.3-11.1l-7.2-86.7l0,0l0-0.6
		c0-3.4,4.3-6.6,11.3-8.9l-1.8-23.3l-0.6-7.8l-0.2-3c-0.3-3.9,2.6-7.3,6.5-7.6c3.9-0.3,7.3,2.6,7.6,6.5l0.8,10.8l1.7,21.3
		c4.9-0.7,10.3-1.1,16-1.2l0.3-32.9l0-1.6c0-3,2.5-5.4,5.5-5.4c3,0,5.4,2.5,5.4,5.5l0,1.6l-0.3,33.1c4.3,0.3,8.4,0.7,12.1,1.3
		l3.2-27.7l0.2-1.5c0.3-3,3.1-5.1,6.1-4.8c3,0.3,5.1,3,4.8,6l-0.2,1.5l-3.4,28.9C227.2,98.5,231.8,101.7,231.8,105.3z"/>
</g>
</svg>
