<?xml version="1.0" encoding="utf-8"?>
<!-- Generator: Adobe Illustrator 21.0.0, SVG Export Plug-In . SVG Version: 6.00 Build 0)  -->
<svg version="1.1" id="Layer_1" xmlns="http://www.w3.org/2000/svg" xmlns:xlink="http://www.w3.org/1999/xlink" x="0px" y="0px"
	 viewBox="0 0 595.7 367.7" style="enable-background:new 0 0 595.7 367.7;" xml:space="preserve">
<style type="text/css">
	.st0{fill:#FFFFFF;stroke:#000000;stroke-width:3;stroke-miterlimit:10;}
	.st1{fill:none;stroke:#000000;stroke-width:3;stroke-miterlimit:10;}
	.st2{stroke:#000000;stroke-width:3;stroke-miterlimit:10;}
	.st3{fill:none;stroke:#000000;stroke-width:2.25;stroke-miterlimit:10;}
	.st4{fill:none;stroke:#000000;stroke-width:3;stroke-linecap:round;stroke-miterlimit:10;}
	.st5{fill:none;stroke:#000000;stroke-width:4.5;stroke-miterlimit:10;}
	.st6{fill:none;stroke:#000000;stroke-width:1.5;stroke-miterlimit:10;}
</style>
<g>
	<g>
		<path class="st1" d="M365,326.1H230.7c-9.4,0-17-7.6-17-17V58.6c0-9.4,7.6-17,17-17H365c9.4,0,17,7.6,17,17V309
			C382,318.5,374.4,326.1,365,326.1z"/>
		<rect x="224.8" y="52.3" class="st1" width="146.1" height="242.4"/>
	</g>
	<g>
		<path class="st1" d="M304,113.7h-12.2c-5.8,0-10.5-4.7-10.5-10.5V90.9c0-5.8,4.7-10.5,10.5-10.5H304c5.8,0,10.5,4.7,10.5,10.5
			v12.2C314.5,108.9,309.8,113.7,304,113.7z"/>
		<circle class="st1" cx="297.8" cy="97" r="6.7"/>
		<circle cx="307" cy="87.8" r="2.5"/>
		<circle class="st1" cx="297.8" cy="97" r="31.8"/>
	</g>
	<circle class="st1" cx="297.8" cy="173.5" r="31.8"/>
	<circle class="st1" cx="297.8" cy="250.1" r="31.8"/>
	<path class="st1" d="M306.9,154v7.1h-4.1c0,0-2.1-0.3-2.1,1.4c0,1.7,0,3.2,0,3.2h6.2l-1,7.8h-5.2v19.6H293v-19.5h-4.3v-7.9h4.1v-4
		c0,0-0.1-7.7,7.4-7.7H306.9z"/>
	<g>
		<g id="XMLID_2_">
			<g id="XMLID_3_">
				<path id="XMLID_4_" class="st1" d="M290.9,265.8c13.3,0,20.6-11,20.6-20.6c0-0.3,0-0.6,0-0.9c1.4-1,4-2.4,4.4-6
					c-5.3,1.8-4.7,0.8-6.4,1.1c-1.3-1.4-3.2-2.3-5.3-2.3c-4,0-7.2,3.2-7.2,7.2c0,0.6,0.1,1.1,0.2,1.6c-6-0.3-11.3-3.2-14.9-7.5
					c-0.6,1.1-1,2.3-1,3.6c0,2.5,1.3,4.7,3.2,6c-1.2,0-2.3-0.4-3.3-0.9c0,0,0,0.1,0,0.1c0,3.5,2.5,6.4,5.8,7.1
					c-0.6,0.2-1.2,0.3-1.9,0.3c-0.5,0-0.9,0-1.4-0.1c0.9,2.9,3.6,5,6.7,5c-2.5,1.9-5.6,3.1-9,3.1c-0.6,0-1.2,0-1.7-0.1
					C283,264.6,286.8,265.8,290.9,265.8"/>
			</g>
		</g>
		<path d="M309.9,242.2c0,0,2.5-0.9,4.1-3.1h1.5l-0.7,2.2C314.8,241.3,311.6,242.2,309.9,242.2z"/>
	</g>
	<circle class="st1" cx="295.3" cy="310.1" r="8.3"/>
</g>
</svg>
