<?xml version="1.0" encoding="utf-8"?>
<!-- Generator: Adobe Illustrator 21.0.0, SVG Export Plug-In . SVG Version: 6.00 Build 0)  -->
<svg version="1.1" id="Layer_1" xmlns="http://www.w3.org/2000/svg" xmlns:xlink="http://www.w3.org/1999/xlink" x="0px" y="0px"
	 viewBox="0 0 595.7 367.7" style="enable-background:new 0 0 595.7 367.7;" xml:space="preserve">
<style type="text/css">
	.st0{fill:#FFFFFF;stroke:#000000;stroke-width:3;stroke-miterlimit:10;}
	.st1{fill:none;stroke:#000000;stroke-width:3;stroke-miterlimit:10;}
	.st2{stroke:#000000;stroke-width:3;stroke-miterlimit:10;}
	.st3{fill:none;stroke:#000000;stroke-width:2.25;stroke-miterlimit:10;}
	.st4{fill:none;stroke:#000000;stroke-width:3;stroke-linecap:round;stroke-miterlimit:10;}
	.st5{fill:none;stroke:#000000;stroke-width:4.5;stroke-miterlimit:10;}
	.st6{fill:none;stroke:#000000;stroke-width:1.5;stroke-miterlimit:10;}
</style>
<g>
	<g>
		<g>
			
				<rect x="187.8" y="11.6" transform="matrix(6.123234e-17 -1 1 6.123234e-17 132.7101 462.9699)" class="st1" width="220" height="307"/>
			
				<rect x="200.7" y="24.1" transform="matrix(6.123234e-17 -1 1 6.123234e-17 132.7101 462.9699)" class="st1" width="194.2" height="282.1"/>
		</g>
		<rect x="270.7" y="275.2" class="st1" width="54.2" height="25.3"/>
		<rect x="225.3" y="300.5" class="st1" width="145" height="12.1"/>
	</g>
	<rect x="156.8" y="68" class="st1" width="41" height="194.2"/>
	<rect x="197.8" y="215.8" class="st1" width="230.6" height="46.5"/>
	<g>
		<rect x="428.4" y="68" class="st1" width="10.5" height="194.2"/>
		<line class="st1" x1="428.4" y1="75.9" x2="438.9" y2="75.9"/>
		<line class="st1" x1="428.4" y1="85.6" x2="438.9" y2="85.6"/>
		<line class="st1" x1="428.4" y1="95.3" x2="438.9" y2="95.3"/>
		<line class="st1" x1="428.4" y1="105" x2="438.9" y2="105"/>
		<line class="st1" x1="428.4" y1="114.7" x2="438.9" y2="114.7"/>
		<line class="st1" x1="428.4" y1="124.4" x2="438.9" y2="124.4"/>
		<line class="st1" x1="428.4" y1="134.1" x2="438.9" y2="134.1"/>
		<line class="st1" x1="428.4" y1="143.8" x2="438.9" y2="143.8"/>
		<line class="st1" x1="428.4" y1="153.5" x2="438.9" y2="153.5"/>
		<line class="st1" x1="428.4" y1="163.2" x2="438.9" y2="163.2"/>
		<line class="st1" x1="428.4" y1="172.9" x2="438.9" y2="172.9"/>
		<line class="st1" x1="428.4" y1="182.6" x2="438.9" y2="182.6"/>
		<line class="st1" x1="428.4" y1="192.3" x2="438.9" y2="192.3"/>
		<line class="st1" x1="428.4" y1="202" x2="438.9" y2="202"/>
		<line class="st1" x1="428.4" y1="211.7" x2="438.9" y2="211.7"/>
		<line class="st1" x1="428.4" y1="221.4" x2="438.9" y2="221.4"/>
		<line class="st1" x1="428.4" y1="231.1" x2="438.9" y2="231.1"/>
		<line class="st1" x1="428.4" y1="240.8" x2="438.9" y2="240.8"/>
		<line class="st1" x1="428.4" y1="250.5" x2="438.9" y2="250.5"/>
	</g>
	<g>
		<line class="st1" x1="217.9" y1="231.1" x2="408.3" y2="231.1"/>
		<line class="st1" x1="217.9" y1="239" x2="408.3" y2="239"/>
		<line class="st1" x1="217.9" y1="247" x2="408.3" y2="247"/>
	</g>
	<line class="st1" x1="237.2" y1="226.2" x2="237.2" y2="231.1"/>
	<line class="st1" x1="269.7" y1="226.2" x2="269.7" y2="231.1"/>
	<line class="st1" x1="302.2" y1="226.2" x2="302.2" y2="231.1"/>
	<line class="st1" x1="280.2" y1="226.2" x2="280.2" y2="231.1"/>
	<line class="st1" x1="345" y1="234.1" x2="345" y2="239"/>
	<line class="st1" x1="315.3" y1="234.1" x2="315.3" y2="239"/>
	<line class="st1" x1="399.7" y1="242.1" x2="399.7" y2="247"/>
	<line class="st1" x1="225.3" y1="242.1" x2="225.3" y2="247"/>
	<line class="st1" x1="156.8" y1="114.7" x2="197.8" y2="114.7"/>
	<line class="st1" x1="156.8" y1="172.9" x2="197.8" y2="172.9"/>
	<g>
		<path class="st1" d="M260.1,121c-11.8,11.8-30.9,11.8-42.6,0"/>
		<path class="st1" d="M260.1,121c11.8-11.8,30.9-11.8,42.6,0"/>
		<line class="st1" x1="265.7" y1="116.6" x2="293" y2="143.8"/>
		<line class="st1" x1="253.6" y1="125.4" x2="280.3" y2="152.2"/>
		<circle class="st1" cx="250.2" cy="110.5" r="8.9"/>
		<path class="st1" d="M298.1,147.8c-21.1,0-38.2,17.1-38.2,38.2h-8.7"/>
		<path class="st1" d="M293,143.8c12.2,12.2,32,12.2,44.2,0l5.8,5.8"/>
	</g>
	<line class="st6" x1="293" y1="101.6" x2="389.9" y2="101.6"/>
	<line class="st6" x1="304.2" y1="130.2" x2="354.1" y2="130.2"/>
	<line class="st6" x1="345" y1="116.6" x2="399.5" y2="116.6"/>
	<line class="st6" x1="283.3" y1="170.8" x2="386" y2="170.8"/>
	<line class="st6" x1="357.4" y1="152.2" x2="411.5" y2="152.2"/>
</g>
</svg>
