<?xml version="1.0" encoding="utf-8"?>
<!-- Generator: Adobe Illustrator 22.0.1, SVG Export Plug-In . SVG Version: 6.00 Build 0)  -->
<svg version="1.1" id="Layer_1" xmlns="http://www.w3.org/2000/svg" xmlns:xlink="http://www.w3.org/1999/xlink" x="0px" y="0px"
	 viewBox="0 0 595.7 367.7" style="enable-background:new 0 0 595.7 367.7;" xml:space="preserve">
<style type="text/css">
	.st0{fill:none;stroke:#f3f4f0;stroke-width:3;stroke-miterlimit:10;}
	.st6{fill:none;stroke:#f3f4f0;stroke-width:3;stroke-linecap:round;stroke-linejoin:round;stroke-miterlimit:10;}
</style>
<g>
	<g>
		<line class="st0" x1="231.4" y1="246.9" x2="231.4" y2="188"/>
		<path class="st0" d="M255.8,316.5h2.3h110.5c8.8,0,16-7.2,16-16v-33.8"/>
		<line class="st0" x1="384.7" y1="211.3" x2="384.7" y2="162.5"/>
		<path class="st0" d="M340.8,49.5h27.9c8.8,0,16,7.2,16,16v50.3"/>
		<path class="st0" d="M231.4,131.4V65.5c0-8.8,7.2-16,16-16h27.9"/>
		<line class="st0" x1="241.8" y1="241.4" x2="241.8" y2="192"/>
		<polyline class="st0" points="241.8,131.4 241.8,59.5 275.3,59.5 		"/>
		<polyline class="st0" points="340.8,59.5 374.2,59.5 374.2,115.7 		"/>
		<line class="st0" x1="374.2" y1="208" x2="374.2" y2="168.1"/>
		<polyline class="st0" points="374.2,266.6 374.2,287.1 276.3,287.1 		"/>
	</g>
	<circle class="st0" cx="308" cy="301.4" r="7.8"/>
	<path class="st0" d="M244.3,329.3h-42.5c-6.3,0-11.5-5.1-11.5-11.5v-42.5c0-6.3,5.1-11.5,11.5-11.5h42.5c6.3,0,11.5,5.1,11.5,11.5
		v42.5C255.8,324.2,250.7,329.3,244.3,329.3z"/>
	<path class="st0" d="M253.2,183h-33.5c-5,0-9.1-4.1-9.1-9.1v-33.5c0-5,4.1-9.1,9.1-9.1h33.5c5,0,9.1,4.1,9.1,9.1v33.5
		C262.3,178.9,258.2,183,253.2,183z"/>
	<path class="st0" d="M393,157.2h-26.9c-4,0-7.3-3.3-7.3-7.3V123c0-4,3.3-7.3,7.3-7.3H393c4,0,7.3,3.3,7.3,7.3v26.9
		C400.2,153.9,397,157.2,393,157.2z"/>
	<path class="st0" d="M396.3,266.7h-33.5c-5,0-9.1-4.1-9.1-9.1v-33.5c0-5,4.1-9.1,9.1-9.1h33.5c5,0,9.1,4.1,9.1,9.1v33.5
		C405.3,262.6,401.3,266.7,396.3,266.7z"/>
	<line class="st6" x1="255.8" y1="320.2" x2="294.6" y2="257.5"/>
	<line class="st6" x1="196.2" y1="265.3" x2="270.1" y2="226.6"/>
	<line class="st6" x1="251.8" y1="266.7" x2="291.8" y2="229.2"/>
	<line class="st6" x1="356.3" y1="263.9" x2="326.5" y2="234.8"/>
	<line class="st6" x1="356.3" y1="217.8" x2="326.5" y2="203.8"/>
	<line class="st6" x1="396.3" y1="215" x2="356.3" y2="202.2"/>
	<line class="st6" x1="258.8" y1="181" x2="286.4" y2="197.4"/>
	<line class="st6" x1="261.4" y1="136.4" x2="286.4" y2="173.3"/>
	<line class="st6" x1="215.6" y1="182" x2="255.8" y2="197.4"/>
	<line class="st6" x1="360.8" y1="154.9" x2="340.8" y2="169.5"/>
	<line class="st6" x1="396.3" y1="156.3" x2="356.3" y2="177.7"/>
	<line class="st6" x1="360.8" y1="118" x2="335.8" y2="146.5"/>
	<g>
		<path class="st0" d="M329.3,97.3h-42.5c-6.3,0-11.5-5.1-11.5-11.5V43.3c0-6.3,5.1-11.5,11.5-11.5h42.5c6.3,0,11.5,5.1,11.5,11.5
			v42.5C340.8,92.2,335.6,97.3,329.3,97.3z"/>
		<line class="st6" x1="340.3" y1="88.9" x2="327.1" y2="140.8"/>
		<line class="st6" x1="277" y1="91.8" x2="290.4" y2="140.8"/>
	</g>
</g>
</svg>
