<?xml version="1.0" encoding="utf-8"?>
<!-- Generator: Adobe Illustrator 22.0.1, SVG Export Plug-In . SVG Version: 6.00 Build 0)  -->
<svg version="1.1" id="Layer_1" xmlns="http://www.w3.org/2000/svg" xmlns:xlink="http://www.w3.org/1999/xlink" x="0px" y="0px"
	 viewBox="0 0 595.7 367.7" style="enable-background:new 0 0 595.7 367.7;" xml:space="preserve">
<style type="text/css">
	.st0{fill:none;stroke:#f3f4f0;stroke-width:3;stroke-miterlimit:10;}
</style>
<g>
	<polygon class="st0" points="384.4,325.6 384.4,42.1 211.3,42.1 211.3,325.6 223.1,325.6 223.1,308 372.6,308 372.6,325.6 	"/>
	<g>
		<rect x="223.1" y="180.7" class="st0" width="149.5" height="113.5"/>
		<rect x="223.1" y="53.5" class="st0" width="149.5" height="113.5"/>
	</g>
	<g>
		
			<rect x="243.8" y="189.7" transform="matrix(0.9828 0.1847 -0.1847 0.9828 48.8111 -43.3151)" class="st0" width="26.2" height="101.3"/>
		<circle class="st0" cx="250.8" cy="273" r="6.8"/>
		<path class="st0" d="M263.6,233l-10.3-1.9c-1.4-0.3-2.4-1.7-2.1-3.1l5-26.8c0.3-1.4,1.7-2.4,3.1-2.1l10.3,1.9
			c1.4,0.3,2.4,1.7,2.1,3.1l-5,26.8C266.5,232.3,265.1,233.2,263.6,233z"/>
		<line class="st0" x1="249.8" y1="235.5" x2="265.3" y2="238.4"/>
		<line class="st0" x1="248.7" y1="241" x2="264.3" y2="243.9"/>
		<line class="st0" x1="247.7" y1="246.6" x2="263.2" y2="249.5"/>
	</g>
	<g>
		<rect x="281.1" y="191.9" class="st0" width="26.2" height="101.3"/>
		<circle class="st0" cx="294.2" cy="275.8" r="6.8"/>
		<path class="st0" d="M299.5,234H289c-1.5,0-2.7-1.2-2.7-2.7v-27.3c0-1.5,1.2-2.7,2.7-2.7h10.5c1.5,0,2.7,1.2,2.7,2.7v27.3
			C302.1,232.8,300.9,234,299.5,234z"/>
		<line class="st0" x1="286.3" y1="239.1" x2="302.1" y2="239.1"/>
		<line class="st0" x1="286.3" y1="244.7" x2="302.1" y2="244.7"/>
		<line class="st0" x1="286.3" y1="250.3" x2="302.1" y2="250.3"/>
	</g>
	<g>
		<rect x="318.4" y="191.9" class="st0" width="26.2" height="101.3"/>
		<circle class="st0" cx="331.5" cy="275.8" r="6.8"/>
		<path class="st0" d="M336.8,234h-10.5c-1.5,0-2.7-1.2-2.7-2.7v-27.3c0-1.5,1.2-2.7,2.7-2.7h10.5c1.5,0,2.7,1.2,2.7,2.7v27.3
			C339.4,232.8,338.2,234,336.8,234z"/>
		<line class="st0" x1="323.6" y1="239.1" x2="339.4" y2="239.1"/>
		<line class="st0" x1="323.6" y1="244.7" x2="339.4" y2="244.7"/>
		<line class="st0" x1="323.6" y1="250.3" x2="339.4" y2="250.3"/>
	</g>
	<g>
		<rect x="243.8" y="65.7" class="st0" width="26.2" height="101.3"/>
		<circle class="st0" cx="256.9" cy="149.5" r="6.8"/>
		<path class="st0" d="M262.2,107.8h-10.5c-1.5,0-2.7-1.2-2.7-2.7V77.9c0-1.5,1.2-2.7,2.7-2.7h10.5c1.5,0,2.7,1.2,2.7,2.7v27.3
			C264.8,106.6,263.6,107.8,262.2,107.8z"/>
		<line class="st0" x1="249" y1="112.8" x2="264.8" y2="112.8"/>
		<line class="st0" x1="249" y1="118.5" x2="264.8" y2="118.5"/>
		<line class="st0" x1="249" y1="124.1" x2="264.8" y2="124.1"/>
	</g>
	<g>
		<rect x="281.1" y="65.7" class="st0" width="26.2" height="101.3"/>
		<circle class="st0" cx="294.2" cy="149.5" r="6.8"/>
		<path class="st0" d="M299.5,107.8H289c-1.5,0-2.7-1.2-2.7-2.7V77.9c0-1.5,1.2-2.7,2.7-2.7h10.5c1.5,0,2.7,1.2,2.7,2.7v27.3
			C302.1,106.6,301,107.8,299.5,107.8z"/>
		<line class="st0" x1="286.3" y1="112.8" x2="302.1" y2="112.8"/>
		<line class="st0" x1="286.3" y1="118.5" x2="302.1" y2="118.5"/>
		<line class="st0" x1="286.3" y1="124.1" x2="302.1" y2="124.1"/>
	</g>
	<polygon class="st0" points="358.6,138.1 323.9,138.1 330.1,166.9 352.4,166.9 	"/>
	<rect x="321.6" y="129.1" class="st0" width="39.3" height="9"/>
	<path class="st0" d="M328.7,109.9c0-6.9,5.6-12.6,12.6-12.6c6.9,0,12.6,5.6,12.6,12.6"/>
	<line class="st0" x1="328.7" y1="109.9" x2="328.7" y2="129.1"/>
	<polyline class="st0" points="353.8,129.1 353.8,109.3 358.6,106 	"/>
	<line class="st0" x1="335" y1="123.4" x2="331.4" y2="120.9"/>
	<line class="st0" x1="353.8" y1="118.5" x2="357.2" y2="116.1"/>
	<line class="st0" x1="332.8" y1="100.6" x2="330.8" y2="97"/>
	<line class="st0" x1="345.3" y1="105.2" x2="343.5" y2="109.3"/>
	<line class="st0" x1="324.9" y1="111.8" x2="328.7" y2="113.9"/>
	<line class="st0" x1="324.9" y1="123.4" x2="328.7" y2="124.6"/>
	<line class="st0" x1="348.2" y1="120.9" x2="346" y2="124.6"/>
	<line class="st0" x1="337.4" y1="112.8" x2="340" y2="116.3"/>
	<line class="st0" x1="338.7" y1="93" x2="339.6" y2="97.5"/>
	<line class="st0" x1="353.6" y1="98" x2="350.9" y2="101.9"/>
	<line class="st0" x1="353.8" y1="125.8" x2="357.2" y2="123.4"/>
	<line class="st0" x1="333.5" y1="105.2" x2="336.1" y2="107.8"/>
</g>
</svg>
