<?xml version="1.0" encoding="utf-8"?>
<!-- Generator: Adobe Illustrator 22.0.1, SVG Export Plug-In . SVG Version: 6.00 Build 0)  -->
<svg version="1.1" id="Capa_1" xmlns="http://www.w3.org/2000/svg" xmlns:xlink="http://www.w3.org/1999/xlink" x="0px" y="0px"
	 viewBox="0 0 283.5 283.5" style="enable-background:new 0 0 283.5 283.5;" xml:space="preserve">
<style type="text/css">
	.st0{fill:#FFFFFF;}
</style>
<path class="st0" d="M141.7,0c39.2,0,74.6,15.8,100.2,41.5c25.7,25.7,41.5,61.1,41.5,100.2c0,39.2-15.9,74.6-41.5,100.2
	c-25.7,25.7-61.1,41.5-100.2,41.5c-39.2,0-74.6-15.9-100.2-41.5S0,180.9,0,141.7S15.9,67.1,41.5,41.5C67.2,15.8,102.6,0,141.7,0
	L141.7,0z M234.2,49.4c-23.7-23.6-56.3-38.3-92.4-38.3S73.1,25.8,49.4,49.4s-38.3,56.2-38.3,92.3s14.7,68.7,38.3,92.4
	c23.6,23.6,56.3,38.2,92.4,38.2s68.7-14.6,92.4-38.2c23.6-23.7,38.2-56.3,38.2-92.4C272.4,105.6,257.8,73,234.2,49.4L234.2,49.4z"/>
<path class="st0" d="M152.6,112.7v-11.6c0-5.6,3.7-6.9,6.4-6.9c2.6,0,16.2,0,16.2,0V69.4h-22.4c-24.9,0-30.4,18.4-30.4,30.3v13H108
	v17.5v11.5h14.6c0,32.9,0,72.4,0,72.4h29c0,0,0-40,0-72.4H173l0.9-11.4l1.7-17.6L152.6,112.7L152.6,112.7z"/>
</svg>
