<?xml version="1.0" encoding="utf-8"?>
<!-- Generator: Adobe Illustrator 19.0.0, SVG Export Plug-In . SVG Version: 6.00 Build 0)  -->
<svg version="1.1" id="Layer_1" xmlns="http://www.w3.org/2000/svg" xmlns:xlink="http://www.w3.org/1999/xlink" x="0px" y="0px"
	 viewBox="-181 97.3 595.7 367.7" style="enable-background:new -181 97.3 595.7 367.7;" xml:space="preserve">
<style type="text/css">
	.st0{fill:none;stroke:#000000;stroke-width:3;stroke-miterlimit:10;}
</style>

<polyline class="st0" points="240.9,319.9 240.9,352.8 116.9,424.4 -7.3,352.8 -7.3,319.9 "/>
<polyline class="st0" points="-7.3,242.3 -7.3,209.5 116.9,137.8 240.9,209.5 240.9,242.3 "/>
<polyline class="st0" points="2.7,242.3 2.7,215.2 116.9,149.3 231,215.2 231,242.3 "/>
<polyline class="st0" points="231,319.9 231,347 116.9,412.9 2.7,347 2.7,319.9 "/>
<path class="st0" d="M260.3,319.9l-6-38.8l5.9-38.8H-26.5l6,38.8l-6,38.8H260.3z"/>
<g>
	<g>
		<line class="st0" x1="116.9" y1="242.3" x2="116.9" y2="179.7"/>
		<line class="st0" x1="130" y1="242.3" x2="130" y2="187.3"/>
		<line class="st0" x1="143.1" y1="242.3" x2="143.1" y2="194.9"/>
		<line class="st0" x1="156.2" y1="242.3" x2="156.2" y2="202.4"/>
		<line class="st0" x1="169.3" y1="242.3" x2="169.3" y2="209.1"/>
		<line class="st0" x1="182.4" y1="242.3" x2="182.4" y2="217.6"/>
	</g>
	<g>
		<line class="st0" x1="103.7" y1="242.3" x2="103.7" y2="187.3"/>
		<line class="st0" x1="90.6" y1="242.3" x2="90.6" y2="194.9"/>
		<line class="st0" x1="77.5" y1="242.3" x2="77.5" y2="202.4"/>
		<line class="st0" x1="64.4" y1="242.3" x2="64.4" y2="209.1"/>
		<line class="st0" x1="51.3" y1="242.3" x2="51.3" y2="217.6"/>
	</g>
</g>
<g>
	<g>
		<line class="st0" x1="116.9" y1="319.9" x2="116.9" y2="382.6"/>
		<line class="st0" x1="103.7" y1="319.9" x2="103.7" y2="375"/>
		<line class="st0" x1="90.6" y1="319.9" x2="90.6" y2="367.4"/>
		<line class="st0" x1="77.5" y1="319.9" x2="77.5" y2="359.8"/>
		<line class="st0" x1="64.4" y1="319.9" x2="64.4" y2="353.2"/>
		<line class="st0" x1="51.3" y1="319.9" x2="51.3" y2="344.7"/>
	</g>
	<g>
		<line class="st0" x1="130" y1="319.9" x2="130" y2="375"/>
		<line class="st0" x1="143.1" y1="319.9" x2="143.1" y2="367.4"/>
		<line class="st0" x1="156.2" y1="319.9" x2="156.2" y2="359.8"/>
		<line class="st0" x1="169.3" y1="319.9" x2="169.3" y2="353.2"/>
		<line class="st0" x1="182.4" y1="319.9" x2="182.4" y2="344.7"/>
	</g>
</g>
<path d="M46,283.6c-1.4-1.6-3.3-2.7-5.7-3.3c0.7-0.3,1.1-0.5,1.4-0.6c0.3-0.1,0.7-0.5,1.4-1c2-1.5,2.9-3.8,2.9-6.8
	c0-2.5-0.9-4.8-2.6-6.8c-1-1-2.4-1.9-4.3-2.5c-1.9-0.6-4.2-0.9-6.8-0.9H17.2v38.8h17c5.3,0,9.1-1.2,11.2-3.6
	c1.9-2.1,2.8-4.5,2.8-7.2C48.1,287.3,47.4,285.3,46,283.6z M25.8,269.1H30c2.5,0,4.3,0.3,5.4,0.8c1.1,0.5,1.6,1.7,1.6,3.4
	s-0.6,2.9-1.8,3.4c-1.1,0.5-2.9,0.8-5.3,0.8h-4.1V269.1z M37.3,292.3c-1.2,0.6-3.1,0.9-5.6,0.9h-5.9v-8.9h5.1c2.9,0,5,0.3,6.3,0.8
	c1.3,0.6,2,1.8,2,3.6C39.2,290.5,38.6,291.7,37.3,292.3z"/>
<path d="M79.5,286.6c4.9-1.8,7.4-5.8,7.4-12c0-4.5-1.3-7.8-3.9-9.8c-2.5-2-6.9-3.1-12.9-3.1H55.4v38.8h8.7v-12.4h6l8.6,12.4h10.6
	L79.5,286.6z M76.4,279.2c-1.1,1-3.1,1.5-6.1,1.5H64v-11.5h6.5c2.8,0,4.7,0.4,5.8,1.2c1.1,0.8,1.7,2.2,1.7,4.3
	C78,276.8,77.5,278.2,76.4,279.2z"/>
<path d="M115.8,261.7h-8.4l-16.8,38.8h9.2l3.6-8.4h16.3l3.6,8.4h9.2L115.8,261.7z M106.8,284.5l4.9-11.2l4.8,11.2H106.8z"/>
<path d="M164.2,261.7v25l-19.1-25H137v38.8h8.7v-24.3l18.5,24.3h8.6v-38.8H164.2z"/>
<path d="M212,266.8c-3.7-3.4-9-5.1-15.9-5.1h-13.7v38.8h13.3c7.4,0,12.9-1.8,16.5-5.3c3.6-3.5,5.4-8.3,5.4-14.3
	S215.7,270.2,212,266.8z M205.7,289.9c-2.1,2-5.2,3-9.1,3h-5.5v-23.6h4.8c4.4,0,7.6,1,9.8,3.1c2.1,2,3.2,5,3.2,8.8
	C208.9,285,207.8,287.9,205.7,289.9z"/>
<circle cx="235.8" cy="281.1" r="4.9"/>
<circle cx="-2.1" cy="281.1" r="4.9"/>

</svg>
