<?xml version="1.0" encoding="utf-8"?>
<!-- Generator: Adobe Illustrator 22.0.1, SVG Export Plug-In . SVG Version: 6.00 Build 0)  -->
<svg version="1.1" id="Capa_1" xmlns="http://www.w3.org/2000/svg" xmlns:xlink="http://www.w3.org/1999/xlink" x="0px" y="0px"
	 viewBox="0 0 283.5 283.5" style="enable-background:new 0 0 283.5 283.5;" xml:space="preserve">
<style type="text/css">
	.st0{fill:#FFFFFF;}
</style>
<path class="st0" d="M141.7,0c39.2,0,74.6,15.8,100.2,41.5c25.7,25.7,41.5,61.1,41.5,100.2c0,39.2-15.9,74.6-41.5,100.2
	c-25.6,25.7-61.1,41.5-100.2,41.5s-74.6-15.9-100.2-41.5S0,180.9,0,141.7S15.9,67.1,41.5,41.5C67.2,15.8,102.6,0,141.7,0L141.7,0z
	 M234.2,49.4c-23.7-23.6-56.3-38.3-92.4-38.3c-36,0-68.7,14.7-92.4,38.3s-38.3,56.2-38.3,92.3s14.7,68.7,38.3,92.4
	c23.6,23.6,56.3,38.2,92.4,38.2s68.7-14.6,92.4-38.2c23.6-23.7,38.2-56.3,38.2-92.4S257.8,73,234.2,49.4L234.2,49.4z"/>
<path class="st0" d="M105.4,141.7c0-20,16.2-36.3,36.3-36.3s36.3,16.3,36.3,36.3c0,20.1-16.2,36.3-36.3,36.3
	C121.7,178,105.4,161.8,105.4,141.7L105.4,141.7z M179.2,70.7h-74.9c-18.4,0-33.6,15.1-33.6,33.6v74.9c0,18.4,15.1,33.6,33.6,33.6
	h74.9c18.5,0,33.6-15.1,33.6-33.6v-74.9C212.8,85.7,197.7,70.7,179.2,70.7L179.2,70.7z M104.3,79.1h74.9c13.9,0,25.2,11.3,25.2,25.2
	v74.9c0,13.9-11.3,25.2-25.2,25.2h-74.9c-13.9,0-25.2-11.3-25.2-25.2v-74.9C79.1,90.4,90.4,79.1,104.3,79.1L104.3,79.1z M186.7,89.7
	c-4.1,0-7.4,3.3-7.4,7.4s3.3,7.4,7.4,7.4c4.1,0,7.4-3.3,7.4-7.4C194,93,190.7,89.7,186.7,89.7L186.7,89.7z M187.5,141.7
	c0-25.3-20.5-45.8-45.8-45.8s-45.8,20.6-45.8,45.8c0,25.3,20.6,45.8,45.8,45.8C167,187.5,187.5,167,187.5,141.7L187.5,141.7z"/>
</svg>
