<?xml version="1.0" encoding="utf-8"?>
<!-- Generator: Adobe Illustrator 21.0.0, SVG Export Plug-In . SVG Version: 6.00 Build 0)  -->
<svg version="1.1" id="Layer_1" xmlns="http://www.w3.org/2000/svg" xmlns:xlink="http://www.w3.org/1999/xlink" x="0px" y="0px"
	 viewBox="0 0 595.7 367.7" style="enable-background:new 0 0 595.7 367.7;" xml:space="preserve">
<style type="text/css">
	.st0{fill:#FFFFFF;stroke:#000000;stroke-width:3;stroke-miterlimit:10;}
	.st1{fill:none;stroke:#000000;stroke-width:3;stroke-miterlimit:10;}
	.st2{stroke:#000000;stroke-width:3;stroke-miterlimit:10;}
	.st3{fill:none;stroke:#000000;stroke-width:2.25;stroke-miterlimit:10;}
	.st4{fill:none;stroke:#000000;stroke-width:3;stroke-linecap:round;stroke-miterlimit:10;}
	.st5{fill:none;stroke:#000000;stroke-width:4.5;stroke-miterlimit:10;}
	.st6{fill:none;stroke:#000000;stroke-width:1.5;stroke-miterlimit:10;}
</style>
<g>
	<polyline class="st1" points="352.9,217 451,258 451,266.8 334.3,315.6 159.4,242.4 159.4,233.6 266.9,188.6 266.9,188.6 
		276,184.8 339.2,211.2 	"/>
	<line class="st1" x1="334.3" y1="306.7" x2="334.3" y2="315.6"/>
	<polyline class="st1" points="451,258 334.3,306.7 159.4,233.6 	"/>
	<polyline class="st3" points="342.8,294.7 334.1,298.3 325.9,294.9 	"/>
	<polyline class="st3" points="421.2,252.6 431.1,256.8 422.4,260.4 	"/>
	<polyline class="st3" points="266.4,195.9 276.1,191.8 285.4,195.7 	"/>
	<polyline class="st3" points="188.3,237.7 177.8,233.3 187.1,229.4 	"/>
	<g>
		
			<rect x="356" y="139.7" transform="matrix(0.7071 0.7071 -0.7071 0.7071 245.7734 -198.8314)" class="st1" width="13.8" height="115.2"/>
		<polyline class="st1" points="327.1,242.9 316.4,248.3 314.1,246 311.9,243.8 317.3,233.1 		"/>
		<line class="st4" x1="314.1" y1="246" x2="311.5" y2="248.6"/>
		
			<rect x="399.7" y="152.6" transform="matrix(0.7071 0.7071 -0.7071 0.7071 228.2303 -241.184)" class="st1" width="11.1" height="4.6"/>
	</g>
	<line class="st5" x1="225.9" y1="178" x2="258.6" y2="191.6"/>
	<polygon points="266.9,188.6 261.4,186.6 247.9,192.2 247.9,195.9 	"/>
	<path class="st1" d="M219.6,96.1c7.5,2.4,12.2,5.6,12.2,9.2l-0.1,0.6l0,0c-0.6,3.7-6,6.9-14.3,9.2c-1.8,0.5-3.6,0.9-5.6,1.3
		c-1.8,0.3-3.7,0.7-5.6,0.9c-3,0.4-6.2,0.7-9.6,0.9c-1.8,0.1-3.6,0.2-5.5,0.2c-0.9,0-1.9,0-2.9,0c-0.9,0-1.7,0-2.6,0
		c-4.9-0.1-9.6-0.4-13.9-1c-5.4-0.7-10.3-1.7-14.3-2.9c-7.4-2.2-12.1-5.3-12.6-8.7l0,0l-0.1-0.6c0-3.4,4.3-6.6,11.3-8.9"/>
	<path class="st1" d="M208.9,93.6c-3.8-0.6-7.8-1.1-12.1-1.3"/>
	<path class="st1" d="M185.9,92c-5.7,0.1-11.1,0.5-16.1,1.2"/>
	<path class="st1" d="M231.8,105.3l-0.1,0.6l0,0l-7.2,86.7c0,6.1-16.2,11.1-36.3,11.1c-20,0-36.3-4.9-36.3-11.1l-7.2-86.7l0,0
		l-0.1-0.6"/>
	<g>
		<path class="st1" d="M223,67.2l-3.4,28.9l-2.2,19.1c-1.8,0.5-3.7,0.9-5.7,1.3c-1.8,0.3-3.7,0.7-5.6,0.9l2.8-23.8l3.2-27.7l5.4,0.6
			L223,67.2z"/>
		<polyline class="st3" points="211.8,116.5 214.3,94.6 217.6,66.5 		"/>
		<path class="st1" d="M212.4,64.4c0.3-3,3.1-5.1,6.1-4.8c3,0.3,5.1,3.1,4.8,6.1"/>
	</g>
	<g>
		<path class="st1" d="M197.1,59.2l-0.3,33.1l-0.2,26.1c-1.8,0.1-3.6,0.2-5.5,0.2c-0.9,0-1.9,0-2.9,0c-0.9,0-1.7,0-2.6,0l0.2-26.5
			l0.3-32.9l5.5,0L197.1,59.2z"/>
		<polyline class="st3" points="191.1,118.5 191.3,92 191.6,59.1 		"/>
		<path class="st1" d="M186.2,57.5c0-3,2.5-5.4,5.5-5.4c3,0,5.4,2.5,5.4,5.5"/>
	</g>
	<g>
		<polyline class="st1" points="171.7,117.6 169.8,93.2 168.2,72 167.3,61.2 		"/>
		<polyline class="st1" points="153.3,62.3 153.5,65.3 154.1,73.1 156,96.4 156.3,100.5 157.4,114.7 		"/>
		<path class="st1" d="M153.3,62.3c-0.3-3.9,2.6-7.3,6.5-7.6c3.9-0.3,7.3,2.6,7.6,6.5"/>
		<polyline class="st3" points="160.3,72.6 168.2,72 167.6,64.2 153.5,65.3 154.1,73.1 		"/>
		<polyline class="st3" points="162.4,100 162,94.7 160.3,72.6 160,68.7 		"/>
		<path class="st3" d="M162.4,100c0.1,1.7-1.1,3.2-2.8,3.3s-3.2-1.1-3.3-2.8"/>
	</g>
</g>
</svg>
