<?xml version="1.0" encoding="utf-8"?>
<!-- Generator: Adobe Illustrator 21.0.0, SVG Export Plug-In . SVG Version: 6.00 Build 0)  -->
<svg version="1.1" id="Layer_1" xmlns="http://www.w3.org/2000/svg" xmlns:xlink="http://www.w3.org/1999/xlink" x="0px" y="0px"
	 viewBox="0 0 595.7 367.7" style="enable-background:new 0 0 595.7 367.7;" xml:space="preserve">
<style type="text/css">
	.st0{fill:#FFFFFF;stroke:#000000;stroke-width:3;stroke-miterlimit:10;}
	.st1{fill:none;stroke:#000000;stroke-width:3;stroke-miterlimit:10;}
	.st2{stroke:#000000;stroke-width:3;stroke-miterlimit:10;}
	.st3{fill:none;stroke:#000000;stroke-width:2.25;stroke-miterlimit:10;}
	.st4{fill:none;stroke:#000000;stroke-width:3;stroke-linecap:round;stroke-miterlimit:10;}
	.st5{fill:none;stroke:#000000;stroke-width:4.5;stroke-miterlimit:10;}
	.st6{fill:none;stroke:#000000;stroke-width:1.5;stroke-miterlimit:10;}
</style>
<g>
	<g>
		<polyline class="st1" points="378.7,190.9 379.3,191.1 380.1,191.5 380.1,192.6 380.1,193.1 		"/>
		<line class="st1" x1="380.1" y1="228.3" x2="380.1" y2="227"/>
		<line class="st1" x1="380.1" y1="272" x2="380.1" y2="260.2"/>
		<line class="st1" x1="352" y1="203.2" x2="352" y2="179.7"/>
		<polyline class="st1" points="338.6,208.8 338.6,180.8 338.6,174.1 323.9,167.9 321,166.8 321,166.8 270.2,145.5 160.3,191.5 
			160.3,283.3 192,296.6 210.1,304.2 213.2,305.5 236.7,315.3 270.2,329.3 338.6,300.7 		"/>
		<line class="st1" x1="380.1" y1="202.2" x2="380.1" y2="202"/>
		<line class="st1" x1="270.2" y1="237.4" x2="270.2" y2="329.3"/>
		<path class="st1" d="M380.1,191.5l-0.6,0.2l-1.8,0.8c0,0,0,0,0,0l-3.3,1.4h0"/>
		<polyline class="st1" points="338.6,208.8 270.2,237.4 236.7,223.4 192.1,204.8 192.1,204.8 160.3,191.5 		"/>
		<g>
			<line class="st1" x1="301.8" y1="158.9" x2="192" y2="204.8"/>
			<polyline class="st1" points="236.7,223.4 236.7,223.4 338.6,180.8 			"/>
			<line class="st1" x1="236.7" y1="223.4" x2="236.7" y2="315.4"/>
			<line class="st1" x1="192" y1="204.8" x2="192" y2="296.8"/>
		</g>
		
			<ellipse transform="matrix(0.1618 -0.9868 0.9868 0.1618 33.9516 424.5612)" class="st1" cx="266.9" cy="192.3" rx="11.8" ry="19.7"/>
		<ellipse transform="matrix(0.1618 -0.9868 0.9868 0.1618 86.7281 437.6035)" cx="301" cy="167.7" rx="1.9" ry="3.2"/>
		<ellipse transform="matrix(0.1618 -0.9868 0.9868 0.1618 102.6849 458.2961)" cx="321.1" cy="168.7" rx="1.9" ry="3.2"/>
		<ellipse transform="matrix(0.1618 -0.9868 0.9868 0.1618 87.891 467.1963)" cx="319" cy="181.9" rx="1.9" ry="3.2"/>
		<ellipse transform="matrix(0.1618 -0.9868 0.9868 0.1618 62.3578 426.1079)" cx="282" cy="176.3" rx="1.9" ry="3.2"/>
		<ellipse transform="matrix(0.1618 -0.9868 0.9868 0.1618 69.2872 449.242)" cx="299.1" cy="183.8" rx="1.9" ry="3.2"/>
		<ellipse transform="matrix(0.1618 -0.9868 0.9868 0.1618 52.164 446.0033)" cx="288.6" cy="192.3" rx="1.9" ry="3.2"/>
		<ellipse transform="matrix(0.1618 -0.9868 0.9868 0.1618 16.6301 402.4811)" cx="245.2" cy="191.5" rx="1.9" ry="3.2"/>
		<ellipse transform="matrix(0.1618 -0.9868 0.9868 0.1618 -15.8642 411.9617)" cx="234.6" cy="215.3" rx="1.9" ry="3.2"/>
		<ellipse transform="matrix(0.1618 -0.9868 0.9868 0.1618 -5.1847 399.6132)" cx="232.6" cy="202.9" rx="1.9" ry="3.2"/>
		<ellipse transform="matrix(0.1618 -0.9868 0.9868 0.1618 -10.8646 378.126)" cx="217.2" cy="195.5" rx="1.9" ry="3.2"/>
		<ellipse transform="matrix(0.1618 -0.9868 0.9868 0.1618 3.3609 421.9716)" cx="250.1" cy="209" rx="1.9" ry="3.2"/>
		<ellipse transform="matrix(0.1618 -0.9868 0.9868 0.1618 -24.5524 385.1597)" cx="214.5" cy="207" rx="1.9" ry="3.2"/>
		<ellipse cx="207.4" cy="231.5" rx="1.9" ry="3.2"/>
		<ellipse cx="197" cy="217.6" rx="1.9" ry="3.2"/>
		<ellipse cx="210" cy="265.7" rx="1.9" ry="3.2"/>
		<ellipse cx="219.1" cy="245.6" rx="1.9" ry="3.2"/>
		<ellipse cx="230.6" cy="260.7" rx="1.9" ry="3.2"/>
		<ellipse cx="201.1" cy="249.6" rx="1.9" ry="3.2"/>
		<ellipse cx="229.5" cy="234.2" rx="1.9" ry="3.2"/>
		<ellipse cx="193.9" cy="268.9" rx="1.9" ry="3.2"/>
		<ellipse cx="203" cy="286.6" rx="1.9" ry="3.2"/>
		<ellipse cx="212" cy="303.1" rx="1.9" ry="3.2"/>
		<ellipse cx="227.5" cy="302" rx="1.9" ry="3.2"/>
		<ellipse cx="220.4" cy="281.3" rx="1.9" ry="3.2"/>
	</g>
	<g>
		<path class="st1" d="M435.4,160.8v161.9c0,4.5-21.7,8.2-48.4,8.2c-26.7,0-48.4-3.7-48.4-8.2v-21.9v-91.9v-28v-6.7v-13.4"/>
		<path class="st1" d="M421.9,170.2c-8.8,1.6-21.2,2.5-34.9,2.5c-13.7,0-26.1-1-34.9-2.5"/>
		<path class="st1" d="M352,279c7.3,1.3,17.1,2.2,28,2.4c2.2,0.1,4.6,0.1,6.9,0.1c13.7,0,26.1-1,34.9-2.5"/>
		<path class="st1" d="M338.6,160.8c0-14.9,8.7-27.7,21.2-33.7"/>
		<path class="st1" d="M359.8,127c9.6-4.6,13.2-14.5,13.2-25.8"/>
		<path class="st1" d="M401,101.2c0,11.3,3.6,21.2,13.2,25.8"/>
		<path class="st1" d="M414.1,127c12.5,6,21.2,18.9,21.2,33.7"/>
		<polyline class="st1" points="401,101.2 401,93 401,57.5 401,52.3 401,41.2 373,41.2 373,52.3 373,57.5 373,93 373,101.2 		"/>
		<rect x="369.7" y="36.9" class="st2" width="34.6" height="20.6"/>
		<rect x="373" y="52.3" class="st2" width="27.9" height="40.7"/>
		<g>
			<path class="st1" d="M380.1,227c-0.5,0.7-1.1,1.2-1.9,1.6c0.5-0.2,1.1-0.3,1.7-0.3c0.1,0,0.2,0,0.2,0c2.5,0.1,4.5,2.2,4.5,4.7
				s-2,4.6-4.5,4.7c-0.1,0-0.1,0-0.2,0c-2.6,0-4.7-2.1-4.7-4.7c0-1.9,1.2-3.6,2.8-4.4c-0.5,0.2-1.1,0.3-1.7,0.3
				c-2.6,0-4.7-2.1-4.7-4.7s2.1-4.7,4.7-4.7c1.6,0,2.9,0.8,3.8,1.9 M380.1,193.1c-0.5-0.2-1-0.3-1.6-0.3c-0.6,0-1.2,0.1-1.8,0.3
				c-0.2,0.1-0.4,0.2-0.6,0.4c-1.4,0.8-2.3,2.3-2.3,4c0,2.6,2.1,4.7,4.7,4.7c0.6,0,1.1-0.1,1.6-0.3c1.8-0.6,3.1-2.4,3.1-4.4
				C383.2,195.5,381.9,193.8,380.1,193.1z M387,172.7c-13.7,0-26.1-1-34.9-2.5V279c7.3,1.3,17.1,2.2,28,2.4c2.2,0.1,4.6,0.1,6.9,0.1
				c13.7,0,26.1-1,34.9-2.5V170.2C413.1,171.7,400.7,172.7,387,172.7z M380.1,202c-0.5,0.2-1,0.3-1.6,0.3c-2.6,0-4.7-2.1-4.7-4.7
				c0-1.8,0.9-3.3,2.3-4c0.2-0.2,0.4-0.3,0.6-0.4c0.5-0.2,1.1-0.3,1.8-0.3c0.6,0,1.1,0.1,1.6,0.3"/>
		</g>
		<path class="st2" d="M412.3,259.1v11.8c-7.4,0.8-16,1.2-25.3,1.2c-9.3,0-17.9-0.5-25.3-1.2v-11.8c7.4,0.8,16,1.2,25.3,1.2
			C396.3,260.3,405,259.8,412.3,259.1z"/>
		<g>
			<path class="st1" d="M379,189.1c0,0.6-0.1,1.2-0.3,1.8c-0.3,0.6-0.6,1.1-1,1.6c0,0,0,0,0,0c-0.3,0.3-0.6,0.5-1,0.7
				c-0.2,0.1-0.4,0.2-0.6,0.4c-0.5,0.2-1.1,0.3-1.7,0.3h0c-2.6,0-4.7-2.1-4.7-4.7s2.1-4.7,4.7-4.7C376.9,184.4,379,186.5,379,189.1z
				"/>
			<path class="st1" d="M380.1,202c1.8-0.6,3.1-2.4,3.1-4.4c0-2.1-1.3-3.8-3.1-4.4"/>
			<circle class="st1" cx="383.8" cy="189.7" r="4.7"/>
			<circle class="st1" cx="388" cy="198.1" r="4.7"/>
			<circle class="st1" cx="397" cy="214.8" r="4.7"/>
			<circle class="st1" cx="392.7" cy="206.3" r="4.7"/>
			<circle class="st1" cx="397.4" cy="198.1" r="4.7"/>
			<circle class="st1" cx="391.7" cy="222.7" r="4.7"/>
			<circle class="st1" cx="373.3" cy="205.5" r="4.7"/>
			<circle class="st1" cx="382.8" cy="206.1" r="4.7"/>
			<circle class="st1" cx="387.5" cy="214.2" r="4.7"/>
			<path class="st1" d="M380.1,227c0.6-0.8,0.9-1.7,0.9-2.8c0-1.1-0.3-2-0.9-2.8"/>
			<circle class="st1" cx="403.5" cy="242.7" r="4.7"/>
			<circle class="st1" cx="370.5" cy="231.7" r="4.7"/>
		</g>
	</g>
</g>
</svg>
