<?xml version="1.0" encoding="utf-8"?>
<!-- Generator: Adobe Illustrator 22.0.1, SVG Export Plug-In . SVG Version: 6.00 Build 0)  -->
<svg version="1.1" id="Layer_1" xmlns="http://www.w3.org/2000/svg" xmlns:xlink="http://www.w3.org/1999/xlink" x="0px" y="0px"
	 viewBox="0 0 595.7 367.7" style="enable-background:new 0 0 595.7 367.7;" xml:space="preserve">
<style type="text/css">
	.st1{fill:#01FFFF;}
</style>
<g>
	<path class="st1" d="M435.4,160.8v161.8c0,4.5-21.7,8.2-48.4,8.2c-26.7,0-48.4-3.7-48.4-8.2v-21.9l-68.4,28.6l-33.5-14l-23.4-9.8
		l-3.1-1.3l-18.2-7.6l-31.7-13.2v-91.9l109.9-46l50.8,21.3h0l2.8,1.2l14.8,6.2v-13.3c0-14.9,8.7-27.7,21.2-33.8
		c9.6-4.6,13.2-14.5,13.2-25.8V57.5h-3.3V36.9h34.6v20.6h-3.3v43.7c0,11.3,3.6,21.2,13.2,25.8C426.7,133,435.4,145.9,435.4,160.8z"
		/>
</g>
</svg>
