<?xml version="1.0" encoding="utf-8"?>
<!-- Generator: Adobe Illustrator 22.0.1, SVG Export Plug-In . SVG Version: 6.00 Build 0)  -->
<svg version="1.1" id="Layer_1" xmlns="http://www.w3.org/2000/svg" xmlns:xlink="http://www.w3.org/1999/xlink" x="0px" y="0px"
	 viewBox="0 0 595.7 367.7" style="enable-background:new 0 0 595.7 367.7;" xml:space="preserve">
<style type="text/css">
	.st0{fill:none;stroke:#f3f4f0;stroke-width:3;stroke-miterlimit:10;}
	.st6{fill:none;stroke:#f3f4f0;stroke-width:3;stroke-linecap:round;stroke-linejoin:round;stroke-miterlimit:10;}
</style>
<g>
	<g>
		<path class="st0" d="M355.7,48.2h6.3c9.4,0,17,7.6,17,17v250.4c0,9.4-7.6,17-17,17H232.7c-9.4,0-17-7.6-17-17V65.3
			c0-9.4,7.6-17,17-17h95.2"/>
		<line class="st0" x1="336.4" y1="59" x2="335.9" y2="59"/>
		<polyline class="st0" points="353.5,59 367.9,59 367.9,301.4 226.8,301.4 226.8,59 303.4,59 		"/>
	</g>
	<circle class="st0" cx="297.3" cy="316.7" r="8.3"/>
	<g>
		<polygon class="st6" points="281.9,141 270.9,102 236.4,88.4 358.3,34.9 335.2,151.7 285.3,110.6 		"/>
		<polyline class="st6" points="270.9,102 337.3,58.1 285.3,110.6 		"/>
		<line class="st6" x1="281.9" y1="141" x2="302.1" y2="124.4"/>
	</g>
	<g>
		<path class="st6" d="M254.8,212.8c0-8.8,7.2-16,16-16c8.8,0,16,7.2,16,16"/>
		<path class="st6" d="M307.8,212.8c0-8.8,7.2-16,16-16c8.8,0,16,7.2,16,16"/>
		<path class="st6" d="M270.8,227.8c0,15,12.2,27.3,27.3,27.3c15,0,27.3-12.2,27.3-27.3H270.8z"/>
	</g>
	<path class="st0" d="M379,186.6h4.1c21.1,0,38.1,17.1,38.1,38.1v0"/>
	<path class="st0" d="M215.7,186.6h-4.1c-21.1,0-38.1-17.1-38.1-38.1v0"/>
	<circle class="st0" cx="422.3" cy="231" r="6.3"/>
	<circle class="st0" cx="173.4" cy="142.1" r="6.3"/>
</g>
</svg>
