<?xml version="1.0" encoding="utf-8"?>
<!-- Generator: Adobe Illustrator 22.0.1, SVG Export Plug-In . SVG Version: 6.00 Build 0)  -->
<svg version="1.1" id="Capa_1" xmlns="http://www.w3.org/2000/svg" xmlns:xlink="http://www.w3.org/1999/xlink" x="0px" y="0px"
	 viewBox="0 0 283.5 283.5" style="enable-background:new 0 0 283.5 283.5;" xml:space="preserve">
<style type="text/css">
	.st0{fill:#FFFFFF;}
</style>
<path class="st0" d="M141.7,0c39.1,0,74.5,15.9,100.2,41.5c25.7,25.7,41.5,61.1,41.5,100.3c0,39.1-15.8,74.5-41.5,100.2
	c-25.7,25.6-61,41.5-100.2,41.5S67.2,267.6,41.5,242C15.9,216.3,0,180.8,0,141.8c0-39.2,15.8-74.6,41.5-100.3
	C67.2,15.9,102.6,0,141.7,0L141.7,0z M234.1,49.3c-23.6-23.6-56.3-38.2-92.3-38.2c-36.1,0-68.7,14.6-92.3,38.2
	C25.7,73,11.1,105.7,11.1,141.8c0,36,14.6,68.7,38.3,92.3c23.6,23.6,56.3,38.3,92.3,38.3c36.1,0,68.7-14.7,92.3-38.3
	c23.7-23.6,38.3-56.3,38.3-92.3C272.4,105.7,257.8,73,234.1,49.3L234.1,49.3z"/>
<path class="st0" d="M214.1,97.6c-5.3,2.3-11,3.8-17,4.6c6.2-3.7,10.9-9.3,13.1-16.2c-5.7,3.4-12.2,5.8-18.9,7.1
	c-5.3-5.7-13.1-9.3-21.7-9.3c-16.3,0-29.7,13.1-29.7,29.2c0,2.4,0.4,4.6,0.9,6.7c-24.7-1.2-46.6-12.8-61.2-30.5
	c-2.5,4.4-4.1,9.3-4.1,14.7c0,10.2,5.3,19.1,13.2,24.3c-4.9-0.1-9.4-1.4-13.4-3.6c0,0.2,0,0.2,0,0.4c0,3.8,0.7,7.2,2,10.5
	c3.6,9.2,11.9,16.1,21.8,18c-2.6,0.7-5.1,1.1-7.8,1.1c-1.9,0-3.8-0.2-5.6-0.6c3.8,11.6,14.8,20.1,27.7,20.4
	c-10.2,7.8-22.9,12.5-36.8,12.5c-2.4,0-4.7-0.2-7.1-0.4c13.2,8.2,28.8,13.1,45.5,13.1c46.4,0,75-32.1,82.5-65.4c1.3-6,2-11.8,2-17.7
	c0-1.3,0-2.6,0-3.8C205,108.6,210.1,103.4,214.1,97.6L214.1,97.6z"/>
</svg>
