<?xml version="1.0" encoding="utf-8"?>
<!-- Generator: Adobe Illustrator 22.0.1, SVG Export Plug-In . SVG Version: 6.00 Build 0)  -->
<svg version="1.1" id="Layer_1" xmlns="http://www.w3.org/2000/svg" xmlns:xlink="http://www.w3.org/1999/xlink" x="0px" y="0px"
	 viewBox="0 0 595.7 367.7" style="enable-background:new 0 0 595.7 367.7;" xml:space="preserve">
<style type="text/css">
	.st8{fill:#F3F4F0;}
</style>
<g>
	<path class="st8" d="M155.3,263.7h111.4h5.6h168.2V148.2v-4V66.5H155.3V263.7z M311.8,213.5l8,13.7l-1.8,1.2l-9.1-11.2L311.8,213.5
		z M348.8,172l15.4,24.6l-1.6,1.1l-18.4-24.5L348.8,172z M357.3,239.9c0.9,0.9,1.9,1.3,3.1,1.3c1.7,0,3-0.7,4.1-2l2.2,2.3
		c-1.7,2-3.8,2.9-6.1,2.9s-4.3-0.7-5.8-2.2c-1.5-1.5-2.3-3.4-2.3-5.6s0.8-4.2,2.3-5.7c1.6-1.5,3.5-2.3,5.7-2.3c2.5,0,4.6,1,6.3,2.9
		l-2.1,2.4c-1.1-1.3-2.4-2-4-2c-1.3,0-2.4,0.4-3.3,1.3s-1.4,2-1.4,3.4S356.5,239.1,357.3,239.9z M336.5,238.9v3.2l-10.6-5v-3l10.6-5
		v3.2l-7,3.2L336.5,238.9z M403.2,169.7l-8-9.8l4.5-1.2l5.4,9.7L403.2,169.7z M401.4,171l-1.9,1.3l-8.9-11l7.1,12.3l-1.8,1.3
		l-10-12.5l9.2-2.4L401.4,171z M393.9,176.1l-1.8,1.2l-10.9-13.8l4.6-1.2L393.9,176.1z M287.9,249.1l-2.3-2.3l2.8-3.6l2,4.2
		L287.9,249.1z M286.7,249.9l-2.6,1.8l-1.4-1.4l2.6-3.3L286.7,249.9z M291.7,246.5l-3.2-3.4l2.2-2.8l0.7-0.9l2.7,5.4L291.7,246.5z
		 M282.3,250.9l0.7,1.6l-4.2,2.9L282.3,250.9z M347.9,226.6h3.1l-9.2,20.1h-3.1L347.9,226.6z M370.5,230.9c1.5-1.5,3.4-2.3,5.7-2.3
		c2.3,0,4.2,0.8,5.7,2.3c1.5,1.5,2.3,3.4,2.3,5.6s-0.8,4.1-2.3,5.6c-1.5,1.5-3.4,2.3-5.7,2.3c-2.3,0-4.2-0.8-5.7-2.3
		c-1.5-1.5-2.3-3.4-2.3-5.6S369,232.4,370.5,230.9z M387.2,229h5.4c2.7,0,4.8,0.7,6.3,2c1.5,1.3,2.2,3.2,2.2,5.6
		c0,2.4-0.7,4.3-2.1,5.6s-3.6,2.1-6.5,2.1h-5.2V229z M404,229h11v3h-7.6v3.2h6.8v2.9h-6.8v3.2h7.9v3H404V229z M418,238.9l7-3.3
		l-7-3.2v-3.2l10.6,5v3l-10.6,5V238.9z M421.5,157.1l-3-3.3l4.3-1.1l1.2,2.7L421.5,157.1z M420.2,158.1l-2.3,1.6l-4.1-4.6l4.4-1.1
		L420.2,158.1z M416.4,160.7l-2.2,1.5l-5.1-5.9l4.4-1.1L416.4,160.7z M412.6,163.3l-2.1,1.4l-6.1-7.2l4.5-1.2L412.6,163.3z
		 M408.9,165.8l-2,1.4l-7-8.5l4.5-1.2L408.9,165.8z M381.2,163.6l9,15.1l-1.7,1.2l-11.9-15.1L381.2,163.6z M295.5,243.9l-4.1-4.5
		l2.9-3.6l3.4,6.6L295.5,243.9z M423.1,152.7l7.9-2.1l-5.9,4.1L423.1,152.7z M376.6,164.8l9.9,16.5l-1.7,1.2L372,166L376.6,164.8z
		 M366.3,195.2L348.8,172l4.6-1.2l14.4,23.3L366.3,195.2z M343.4,173.4l0.7-0.2l16.3,26l-1.5,1l-17.5-24.4L343.4,173.4z
		 M341.4,175.9l15.4,25.8l-1.6,1.1l-17.1-22.7L341.4,175.9z M338,180.2l15,24.1l-1.6,1.1l-16.3-21.5L338,180.2z M335.1,183.9
		l14.2,22.9l-1.6,1.1l-15.5-20.4L335.1,183.9z M332.2,187.6l13.4,21.8l-1.6,1.1l-14.7-19.2L332.2,187.6z M329.3,191.3l12.7,20.6
		l-1.6,1.1L326.4,195L329.3,191.3z M326.4,195l11.9,19.5l-1.7,1.1l-13.1-16.9L326.4,195z M323.4,198.7l11.1,18.3l-1.7,1.2
		l-12.3-15.8L323.4,198.7z M308.8,217.3l7.2,12.5l-1.8,1.3l-8.2-10.1L308.8,217.3z M305.9,221l6.5,11.3l-1.9,1.3l-7.4-9L305.9,221z
		 M303,224.7l5.7,10.1l-1.9,1.3l-6.6-7.8L303,224.7z M300.1,228.4l4.9,9l-2,1.4l-5.8-6.7L300.1,228.4z M297.2,232.1l4.2,7.8
		l-2.1,1.4l-4.9-5.6L297.2,232.1z M286.1,241.3l-2.4,3.1c-5.1-0.2-9.2-4.4-9.2-9.6c0-5.3,4.3-9.6,9.6-9.6c4.3,0,8.1,2.9,9.2,7
		L286.1,241.3z M371.8,162.9v-3.3h12.6L371.8,162.9z M370.7,166.3L370.7,166.3l1.2-0.3l10.8,17.9l-1.7,1.1l-13.7-17.8L370.7,166.3z
		 M367.3,167.2l11.7,19.2l-1.6,1.1l-14.7-19.2L367.3,167.2z M362.7,168.4l12.6,20.6l-1.6,1.1l-15.6-20.5L362.7,168.4z M358,169.6
		l13.5,21.9l-1.6,1.1l-16.5-21.8l1.2-0.3l0,0L358,169.6z M352.9,167.8l-2,0.5l-13.4-17.3l-37.5,30.3l-5.9-4.9
		c1.8-3.1,2.7-6.6,2.7-10.2c0-11.4-9.3-20.8-20.8-20.8c-11.4,0-20.8,9.3-20.8,20.8c0,5.4,2.1,10.6,5.8,14.4l-18.2,13.6v-59.7h110.1
		V167.8z M263.4,178.9c-3.4-3.3-5.3-7.8-5.3-12.6c0-9.9,8-17.9,17.9-17.9c9.9,0,17.9,8,17.9,17.9c0,3-0.7,5.8-2.1,8.4l-10.8-8.9
		L263.4,178.9z M280.9,169.5l19,15.7l37-29.9l10.9,14l-5.7,1.5c-0.3,0.1-0.6,0.3-0.8,0.5L322,195.7h-76.3L280.9,169.5z M320.5,202.4
		l10.3,17.1l-1.7,1.2l-11.5-14.6l9.5,16l-1.7,1.2l-10.7-13.4l8.7,14.8l-1.8,1.2l-9.9-12.3L320.5,202.4z M295.4,229.5
		c-2-4.3-6.4-7.2-11.3-7.2c-4.8,0-9,2.7-11.1,6.7c-2.1-4-6.3-6.7-11.1-6.7c-6.9,0-12.5,5.6-12.5,12.5s5.6,12.5,12.5,12.5
		c4.8,0,9-2.7,11.1-6.7c1.7,3.3,4.9,5.7,8.6,6.4l-10.8,13.7h-28v-51h68.1L295.4,229.5z M271.6,234.8c0,5.3-4.3,9.6-9.6,9.6
		s-9.6-4.3-9.6-9.6s4.3-9.6,9.6-9.6S271.6,229.4,271.6,234.8z M158.3,69.5h279.1v76.3l-41.9,10.9h-26.5v6.9l-13.2,3.4v-35.4H239.9
		v66.9h79.8l-6.6,8.3h-73.3v53.9h-81.6V69.5z"/>
	<path class="st8" d="M365,86.9H230.7v25.2H365V86.9z M362,109.1H233.7V89.9H362V109.1z"/>
	<path class="st8" d="M189.6,112.1c7,0,12.6-5.7,12.6-12.6s-5.7-12.6-12.6-12.6s-12.6,5.7-12.6,12.6S182.6,112.1,189.6,112.1z
		 M189.6,89.9c5.3,0,9.6,4.3,9.6,9.6s-4.3,9.6-9.6,9.6s-9.6-4.3-9.6-9.6S184.3,89.9,189.6,89.9z"/>
	<path class="st8" d="M171.8,148.4h56.8v-16.7h-56.8V148.4z M174.6,134.6h51.1v11h-51.1V134.6z"/>
	<path class="st8" d="M171.8,173.5h56.8v-16.7h-56.8V173.5z M174.6,159.6h51.1v11h-51.1V159.6z"/>
	<path class="st8" d="M171.8,198.6h56.8v-16.7h-56.8V198.6z M174.6,184.7h51.1v11h-51.1V184.7z"/>
	<path class="st8" d="M171.8,223.6h56.8v-16.7h-56.8V223.6z M174.6,209.8h51.1v11h-51.1V209.8z"/>
	<path class="st8" d="M171.8,248.7h56.8v-16.7h-56.8V248.7z M174.6,234.8h51.1v11h-51.1V234.8z"/>
	<path class="st8" d="M425.7,131.7h-56.8v16.7h56.8V131.7z M422.9,145.6h-51.1v-11h51.1V145.6z"/>
	<rect x="304.4" y="159.8" class="st8" width="11.1" height="2.9"/>
	<rect x="309.1" y="142" class="st8" width="33.8" height="2.9"/>
	<rect x="245.6" y="152.7" class="st8" width="7.7" height="2.9"/>
	<rect x="245.6" y="177.2" class="st8" width="7.7" height="2.9"/>
	<path class="st8" d="M376.3,241.4c1.3,0,2.4-0.5,3.2-1.4s1.3-2.1,1.3-3.5c0-1.4-0.4-2.5-1.3-3.5c-0.9-1-2-1.4-3.2-1.4
		s-2.4,0.5-3.2,1.4c-0.9,1-1.3,2.1-1.3,3.5c0,1.4,0.4,2.5,1.3,3.5S375,241.4,376.3,241.4z"/>
	<path class="st8" d="M396.4,240.1c0.8-0.8,1.3-1.9,1.3-3.4s-0.4-2.7-1.3-3.5c-0.8-0.8-2.1-1.2-3.9-1.2h-1.9v9.3h2.2
		C394.3,241.2,395.5,240.8,396.4,240.1z"/>
	<path class="st8" d="M452.9,276.5v-223h-310v223h126.3V299h-45.4v15.1h148V299h-45.4v-22.5H452.9z M368.8,302v9.1h-142V302h42.4
		h57.2H368.8z M272.2,299v-22.3h51.2V299H272.2z M145.9,56.5h304v217h-304V56.5z"/>
</g>
</svg>
