<?xml version="1.0" encoding="utf-8"?>
<!-- Generator: Adobe Illustrator 21.0.0, SVG Export Plug-In . SVG Version: 6.00 Build 0)  -->
<svg version="1.1" id="Layer_1" xmlns="http://www.w3.org/2000/svg" xmlns:xlink="http://www.w3.org/1999/xlink" x="0px" y="0px"
	 viewBox="0 0 259.9 54.5" style="enable-background:new 0 0 259.9 54.5;" xml:space="preserve">
<style type="text/css">
	.st0{fill:#1D1D1B;}
</style>
<g id="XMLID_158_">
	<g id="XMLID_159_">
		<path class="st0" d="M31.9,37v17.5H19.8V37.3L0,0.4h12.2l13.7,24.3L39.3,0.4h12.2L31.9,37z"/>
		<path class="st0" d="M120.8,27.4C120.8,43,108.4,55,92.1,55c-16.4,0-28.8-11.9-28.8-27.6C63.3,11.7,75.7,0,92.1,0
			C108.4,0,120.8,11.7,120.8,27.4z M75.7,27.4c0,9.5,7.6,16.9,16.5,16.9s16.2-7.4,16.2-16.9c0-9.5-7.3-16.8-16.2-16.8
			C83.2,10.7,75.7,17.9,75.7,27.4z"/>
		<path class="st0" d="M184,13.9c0,5.8-3.5,10.4-9.3,11.9c7,1.3,11.2,6.6,11.2,13.7c0,9.3-7.8,15-20.2,15h-25.5V0.4h24.6
			C176.7,0.4,184,5.6,184,13.9z M171.6,16.1c0-3.7-2.8-5.9-7.3-5.8h-11.9v11.8h11.9C168.9,22.2,171.6,19.9,171.6,16.1z M173.5,37.9
			c0-3.9-3.5-6.3-9.2-6.3h-11.9v12.8h11.9C170,44.5,173.5,42.1,173.5,37.9z"/>
		<path class="st0" d="M259.9,27.4c0,15.6-12.4,27.6-28.8,27.6s-28.8-11.9-28.8-27.6c0-15.8,12.4-27.4,28.8-27.4
			S259.9,11.7,259.9,27.4z M214.8,27.4c0,9.5,7.6,16.9,16.5,16.9s16.2-7.4,16.2-16.9c0-9.5-7.3-16.8-16.2-16.8
			C222.3,10.7,214.8,17.9,214.8,27.4z"/>
	</g>
</g>
</svg>
